<?xml version="1.0" encoding="UTF-8"?>
<svg width="181px" height="54px" viewBox="0 0 181 54" version="1.1" xmlns="http://www.w3.org/2000/svg" xmlns:xlink="http://www.w3.org/1999/xlink">
    <!-- Generator: Sketch 59.1 (86144) - https://sketch.com -->
    <title>play-store.nl</title>
    <desc>Created with Sketch.</desc>
    <defs>
        <path d="M0.813066646,0.0139999996 L0.713999982,0.108799997 C0.325999992,0.51933332 0.0969333309,1.15679997 0.0969333309,1.98226662 L0.0969333309,1.78799996 L0.0969333309,1.78799996 L0.0969333309,31.2759992 C0.0969333309,31.2786659 0.0969333309,31.2806659 0.0969333309,31.2827992 C0.0969333309,31.2802659 0.0969333309,31.2781326 0.0969333309,31.2754659 L0.0969333309,31.0806659 C0.0969333309,31.9745325 0.363999991,32.6478659 0.811466646,33.0515992 L17.3311996,16.5322663 L0.813066646,0.0139999996 M0.0969333309,31.2843992 C0.0969333309,31.3578659 0.0989333309,31.4291992 0.102666664,31.4994659 C0.0989333309,31.4297325 0.0969333309,31.3578659 0.0969333309,31.2843992" id="path-1"></path>
        <linearGradient x1="61.2933704%" y1="95.5670711%" x2="25.9611265%" y2="27.8361624%" id="linearGradient-3">
            <stop stop-color="#00A0FF" offset="0%"></stop>
            <stop stop-color="#00A1FF" offset="0.657445%"></stop>
            <stop stop-color="#00BEFF" offset="26.01%"></stop>
            <stop stop-color="#00D2FF" offset="51.22%"></stop>
            <stop stop-color="#00DFFF" offset="76.04%"></stop>
            <stop stop-color="#00E3FF" offset="100%"></stop>
        </linearGradient>
        <path d="M5.63693319,0.0286666659 L5.63693319,0.0286666659 L5.76253319,0.0999999975 L12.2863997,3.8067999 C12.9083997,4.1603999 13.322933,4.58906655 13.529733,5.04266654 C13.3234663,4.58906655 12.9087997,4.15986656 12.2863997,3.80626657 L5.76253319,0.0994666642 L5.63693319,0.0286666659 M5.63853319,0.223999994 L0.131199997,5.73226652 L5.63799986,11.2395997 L12.2863997,7.46253315 C13.1306663,6.98279983 13.6046663,6.36453317 13.6838663,5.73279986 C13.6838663,5.73226652 13.6838663,5.73119986 13.6838663,5.73026652 C13.6046663,5.09999987 13.1306663,4.48119989 12.2863997,4.0015999 L5.63853319,0.223999994" id="path-4"></path>
        <linearGradient x1="107.590142%" y1="50.8682001%" x2="-130.463869%" y2="50.8682001%" id="linearGradient-6">
            <stop stop-color="#FFE000" offset="0%"></stop>
            <stop stop-color="#FFBD00" offset="40.87%"></stop>
            <stop stop-color="#FFA500" offset="77.54%"></stop>
            <stop stop-color="#FF9C00" offset="100%"></stop>
        </linearGradient>
        <path d="M1.32399997,0.0515999987 C0.862533312,0.0515999987 0.459866655,0.201599995 0.145866663,0.484933321 L0.146399996,0.485466655 C0.460399988,0.202133328 0.863599978,0.0515999987 1.32506663,0.0515999987 C1.36506663,0.0515999987 1.4057333,0.0526666654 1.4469333,0.0546666653 C1.40519996,0.0526666654 1.36399997,0.0515999987 1.32399997,0.0515999987 M1.3245333,0.246931915 C0.863066645,0.246399994 0.460399988,0.396933323 0.146399996,0.68026665 L0.146399996,0.68026665 L0.146399996,0.68066665 L16.6645329,17.1989329 L22.1718661,11.6906664 L22.1718661,11.6906664 L2.8182666,0.694266649 C2.28279994,0.390666657 1.77546662,0.246931915 1.3245333,0.246931915 M0.14173333,0.488533321 C0.112533331,0.515066654 0.0838666646,0.543199986 0.0557333319,0.572399986 L0.14173333,0.488533321" id="path-7"></path>
        <linearGradient x1="86.7252262%" y1="69.3280122%" x2="-50.4795896%" y2="-37.0511942%" id="linearGradient-9">
            <stop stop-color="#FF3A44" offset="0%"></stop>
            <stop stop-color="#C31162" offset="100%"></stop>
        </linearGradient>
        <path d="M16.5311996,0.132266663 L16.5311996,0.132266663 L0.0114666664,16.6515996 C0.325466659,16.9343996 0.727599982,17.0843996 1.1885333,17.0843996 C1.64066663,17.0843996 2.14839995,16.9401329 2.68493327,16.6359996 L22.0379994,5.63959986 L16.5311996,0.132266663 M22.1625328,5.76399986 L2.68493327,16.8306662 C2.14839995,17.1349329 1.64066663,17.2791996 1.1885333,17.2791996 C1.18639997,17.2791996 1.1849333,17.2791996 1.18279997,17.2791996 C1.18546664,17.2791996 1.18746664,17.2791996 1.19066664,17.2791996 C1.64173329,17.2791996 2.14893328,17.1354662 2.68493327,16.8311996 L22.1625328,5.76399986" id="path-10"></path>
        <linearGradient x1="-19.3296937%" y1="112.411183%" x2="41.8411754%" y2="65.0593858%" id="linearGradient-12">
            <stop stop-color="#32A071" offset="0%"></stop>
            <stop stop-color="#2DA771" offset="6.85%"></stop>
            <stop stop-color="#15CF74" offset="47.62%"></stop>
            <stop stop-color="#06E775" offset="80.09%"></stop>
            <stop stop-color="#00F076" offset="100%"></stop>
        </linearGradient>
        <polyline id="path-13" points="0.0369333324 0.161999996 0.0369333324 0.161999996 0.162533329 0.233333328 0.0369333324 0.161999996"></polyline>
        <linearGradient x1="6809.6%" y1="4300.35%" x2="-17387.4%" y2="4300.35%" id="linearGradient-15">
            <stop stop-color="#CCB300" offset="0%"></stop>
            <stop stop-color="#CC9700" offset="40.87%"></stop>
            <stop stop-color="#CC8400" offset="77.54%"></stop>
            <stop stop-color="#CC7D00" offset="100%"></stop>
        </linearGradient>
        <path d="M1.32506663,0.0515999987 C0.863599978,0.0515999987 0.460399988,0.202133328 0.146399996,0.485466655 L0.145866663,0.484933321 C0.144799996,0.485999988 0.143199996,0.487466654 0.14173333,0.488533321 L0.0557333319,0.572399986 C0.0530666653,0.575066652 0.0505333321,0.578133319 0.0473333321,0.581199985 L0.146399996,0.68026665 C0.460399988,0.396933323 0.863066645,0.246399994 1.3245333,0.246933327 C1.77546662,0.246933327 2.28279994,0.390666657 2.8182666,0.694266649 L22.1718661,11.6906664 L22.2958661,11.5666664 L22.1702661,11.495333 L2.8182666,0.499466654 C2.33026661,0.222933328 1.86613329,0.0786666647 1.4469333,0.0546666653 C1.4057333,0.0526666653 1.36506663,0.0515999987 1.32506663,0.0515999987" id="path-16"></path>
        <linearGradient x1="86.2468837%" y1="69.4394661%" x2="-50.1414325%" y2="-1.91052725%" id="linearGradient-18">
            <stop stop-color="#CC2E36" offset="0%"></stop>
            <stop stop-color="#9C0E4E" offset="100%"></stop>
        </linearGradient>
        <path d="M0.713999982,0.0478666655 L0.713999982,0.0478666655 C0.325999992,0.458399989 0.0969333309,1.09533331 0.0969333309,1.92133329 L0.0969333309,2.11559995 C0.0969333309,1.2901333 0.325999992,0.65266665 0.713999982,0.242133327 L0.813066646,0.14733333 L0.713999982,0.0478666655" id="path-19"></path>
        <linearGradient x1="308.135018%" y1="1531.75135%" x2="-66.6655356%" y2="449.567965%" id="linearGradient-21">
            <stop stop-color="#008DE0" offset="0%"></stop>
            <stop stop-color="#008DE0" offset="0.657445%"></stop>
            <stop stop-color="#00A7E0" offset="26.01%"></stop>
            <stop stop-color="#00B8E0" offset="51.22%"></stop>
            <stop stop-color="#00C4E0" offset="76.04%"></stop>
            <stop stop-color="#00C7E0" offset="100%"></stop>
        </linearGradient>
        <polyline id="path-22" points="0.0473333321 0.0478666655 0.0473333321 0.0478666655 0.0473333321 0.0478666655 0.146399996 0.14733333 0.146399996 0.14693333 0.0473333321 0.0478666655"></polyline>
        <linearGradient x1="14404.35%" y1="10180.7%" x2="-8353.95%" y2="-12577.6%" id="linearGradient-24">
            <stop stop-color="#E0333C" offset="0%"></stop>
            <stop stop-color="#AB0F56" offset="100%"></stop>
        </linearGradient>
        <path d="M0.162533329,0.0999999975 L0.162533329,0.0999999975 L0.0385333324,0.223999994 L6.68639983,4.0015999 C7.53066648,4.48119989 8.00466647,5.1 8.08386646,5.73026652 C8.08386646,5.4989332 8.03226647,5.2677332 7.92973314,5.04266654 C7.72293314,4.58906655 7.30839982,4.1603999 6.68639983,3.8067999 L0.162533329,0.0999999975" id="path-25"></path>
        <linearGradient x1="112.78588%" y1="100.021313%" x2="-288.225058%" y2="100.021313%" id="linearGradient-27">
            <stop stop-color="#E0C500" offset="0%"></stop>
            <stop stop-color="#E0A600" offset="40.87%"></stop>
            <stop stop-color="#E09100" offset="77.54%"></stop>
            <stop stop-color="#E08900" offset="100%"></stop>
        </linearGradient>
        <path d="M8.08386646,0.132799997 C8.00466647,0.764533314 7.53066648,1.38279997 6.68639983,1.86253329 L0.0379999991,5.63959986 L0.161999996,5.76359986 L0.162533329,5.76359986 L6.68639983,2.05679995 C7.61719981,1.52759996 8.08333313,0.830266646 8.08386646,0.132799997" id="path-28"></path>
        <linearGradient x1="112.785032%" y1="-0.0236792877%" x2="-288.199324%" y2="-0.0236792877%" id="linearGradient-30">
            <stop stop-color="#FFE840" offset="0%"></stop>
            <stop stop-color="#FFCE40" offset="40.87%"></stop>
            <stop stop-color="#FFBC40" offset="77.54%"></stop>
            <stop stop-color="#FFB540" offset="100%"></stop>
        </linearGradient>
        <path d="M0.0969333309,0.0139999997 L0.0969333309,0.208799995 C0.0969333309,0.211466661 0.0969333309,0.213599995 0.0969333309,0.216133328 C0.0969333309,0.216666661 0.0969333309,0.217199995 0.0969333309,0.217733328 C0.0969333309,0.291199993 0.0989333309,0.363066658 0.102666664,0.432799989 C0.102666664,0.433866656 0.102666664,0.434933322 0.102666664,0.435999989 C0.102666664,0.436933322 0.102666664,0.437999989 0.103066664,0.439066656 C0.103066664,0.441199989 0.103066664,0.443199989 0.103066664,0.445333322 C0.103066664,0.445866656 0.103066664,0.446399989 0.103066664,0.446933322 C0.143199996,1.15786664 0.363999991,1.71253329 0.713999982,2.08279995 L0.713999982,2.08279995 L0.713999982,2.08279995 L0.811466646,1.98493328 C0.363999991,1.58119996 0.0969333309,0.907866644 0.0969333309,0.0139999997" id="path-31"></path>
        <linearGradient x1="306.91369%" y1="23.3823801%" x2="-66.1070955%" y2="-1009.83193%" id="linearGradient-33">
            <stop stop-color="#40B8FF" offset="0%"></stop>
            <stop stop-color="#40B9FF" offset="0.657445%"></stop>
            <stop stop-color="#40CEFF" offset="26.01%"></stop>
            <stop stop-color="#40DDFF" offset="51.22%"></stop>
            <stop stop-color="#40E7FF" offset="76.04%"></stop>
            <stop stop-color="#40EAFF" offset="100%"></stop>
        </linearGradient>
        <path d="M22.1713328,0.039599999 L2.8182666,11.0359997 C2.28173328,11.340133 1.77399996,11.4843997 1.32186663,11.4843997 C0.860933312,11.4843997 0.458799989,11.3343997 0.144799996,11.0515997 L0.0473333321,11.1494664 L0.0473333321,11.1494664 C0.0781333314,11.1817331 0.109333331,11.2130664 0.14213333,11.2426664 C0.143199996,11.2437331 0.144799996,11.2447997 0.145866663,11.2458664 C0.457333322,11.526533 0.855199979,11.676533 1.31199997,11.6791997 L1.31199997,11.6791997 C1.31306663,11.6791997 1.3145333,11.6791997 1.3161333,11.6791997 C1.31826663,11.6791997 1.3197333,11.6791997 1.32186663,11.6791997 C1.77399996,11.6791997 2.28173328,11.534933 2.8182666,11.2306664 L22.2958661,0.163999996 L22.2953328,0.163599996 L22.1713328,0.039599999" id="path-34"></path>
        <linearGradient x1="-18.8069326%" y1="85.5201818%" x2="42.0959584%" y2="53.6580685%" id="linearGradient-36">
            <stop stop-color="#65B895" offset="0%"></stop>
            <stop stop-color="#62BD95" offset="6.85%"></stop>
            <stop stop-color="#50DB97" offset="47.62%"></stop>
            <stop stop-color="#44ED98" offset="80.09%"></stop>
            <stop stop-color="#40F498" offset="100%"></stop>
        </linearGradient>
    </defs>
    <g id="Website-improved" stroke="none" stroke-width="1" fill="none" fill-rule="evenodd">
        <g id="Keyn-website-2.0" transform="translate(-704.000000, -6358.000000)">
            <g id="play-store.nl" transform="translate(704.000000, 6358.000000)">
                <g id="g10" transform="translate(90.500000, 27.000000) scale(-1, 1) rotate(-180.000000) translate(-90.500000, -27.000000) ">
                    <g id="g12" transform="translate(0.000000, 0.000000)">
                        <path d="M173.666662,0.333333 L6.9999995,0.333333 C3.333333,0.333333 0.333333,3.333333 0.333333,6.9999995 L0.333333,46.9999985 C0.333333,50.6666651 3.333333,53.666665 6.9999995,53.666665 L173.666662,53.666665 C177.333333,53.666665 180.333333,50.6666651 180.333333,46.9999985 L180.333333,6.9999995 C180.333333,3.333333 177.333333,0.333333 173.666662,0.333333" id="path16" fill="#000000" fill-rule="nonzero"></path>
                        <path d="M173.666662,53.666665 L6.9999995,53.666665 C3.333333,53.666665 0.333333,50.6666651 0.333333,46.9999985 L0.333333,6.9999995 C0.333333,3.333333 3.333333,0.333333 6.9999995,0.333333 L173.666662,0.333333 C177.333333,0.333333 180.333333,3.333333 180.333333,6.9999995 L180.333333,46.9999985 C180.333333,50.6666651 177.333333,53.666665 173.666662,53.666665 M173.666662,52.5999984 C176.754662,52.5999984 179.266662,50.0874651 179.266662,46.9999985 L179.266662,6.9999995 C179.266662,3.91199958 176.754662,1.39946631 173.666662,1.39946631 L6.9999995,1.39946631 C3.91253291,1.39946631 1.39999964,3.91199958 1.39999964,6.9999995 L1.39999964,46.9999985 C1.39999964,50.0874651 3.91253291,52.5999984 6.9999995,52.5999984 L173.666662,52.5999984" id="path18" fill="#A6A6A6" fill-rule="nonzero"></path>
                        <path d="M142.914663,13.666666 L145.402663,13.666666 L145.402663,30.3349322 L142.914663,30.3349322 L142.914663,13.666666 Z M165.323996,24.3306657 L162.471996,17.1041326 L162.386662,17.1041326 L159.426662,24.3306657 L156.746662,24.3306657 L161.185329,14.230266 L158.654662,8.61199946 L161.250662,8.61199946 L168.090662,24.3306657 L165.323996,24.3306657 Z M151.214663,15.559866 C150.398663,15.559866 149.262663,15.9671993 149.262663,16.9754659 C149.262663,18.2619992 150.678663,18.7551992 151.899996,18.7551992 C152.994663,18.7551992 153.507996,18.5193325 154.173329,18.1973326 C153.979996,16.6535993 152.650663,15.559866 151.214663,15.559866 L151.214663,15.559866 Z M151.514663,24.6953324 C149.713329,24.6953324 147.847996,23.9015991 147.075996,22.1431991 L149.283996,21.2213325 C149.755996,22.1431991 150.634663,22.4437324 151.557329,22.4437324 C152.843996,22.4437324 154.151996,21.6713325 154.173329,20.2989325 L154.173329,20.1275992 C153.722662,20.3849325 152.758663,20.7707992 151.578663,20.7707992 C149.198663,20.7707992 146.774663,19.4630659 146.774663,17.0182659 C146.774663,14.7879993 148.726663,13.351066 150.913329,13.351066 C152.586663,13.351066 153.507996,14.1015993 154.087996,14.980666 L154.173329,14.980666 L154.173329,13.694266 L156.574662,13.694266 L156.574662,20.0849325 C156.574662,23.0437324 154.366662,24.6953324 151.514663,24.6953324 L151.514663,24.6953324 Z M136.138663,22.3015991 L132.599996,22.3015991 L132.599996,28.0150656 L136.138663,28.0150656 C137.998663,28.0150656 139.054663,26.4750657 139.054663,25.158399 C139.054663,23.8666657 137.998663,22.3015991 136.138663,22.3015991 Z M136.074663,30.3349322 L130.11333,30.3349322 L130.11333,13.666666 L132.599996,13.666666 L132.599996,19.9817325 L136.074663,19.9817325 C138.831996,19.9817325 141.542663,21.9781325 141.542663,25.158399 C141.542663,28.3385323 138.831996,30.3349322 136.074663,30.3349322 Z M103.566664,15.5567993 C101.847864,15.5567993 100.408797,16.9958659 100.408797,18.9723992 C100.408797,20.9697325 101.847864,22.4306658 103.566664,22.4306658 C105.263597,22.4306658 106.59533,20.9697325 106.59533,18.9723992 C106.59533,16.9958659 105.263597,15.5567993 103.566664,15.5567993 L103.566664,15.5567993 Z M106.423464,23.3973324 L106.337464,23.3973324 C105.779197,24.0630657 104.704664,24.6645324 103.351597,24.6645324 C100.51613,24.6645324 97.9171972,22.1729325 97.9171972,18.9723992 C97.9171972,15.7931993 100.51613,13.3229327 103.351597,13.3229327 C104.704664,13.3229327 105.779197,13.9245327 106.337464,14.611466 L106.423464,14.611466 L106.423464,13.7953327 C106.423464,11.6254661 105.263597,10.4655994 103.394797,10.4655994 C101.86973,10.4655994 100.92453,11.5614661 100.537464,12.4849327 L98.3682639,11.5827994 C98.9911972,10.0791994 100.64533,8.2317328 103.394797,8.2317328 C106.31613,8.2317328 108.786397,9.95053276 108.786397,14.139066 L108.786397,24.3207991 L106.423464,24.3207991 L106.423464,23.3973324 Z M110.504664,13.666666 L112.996397,13.666666 L112.996397,30.3354656 L110.504664,30.3354656 L110.504664,13.666666 Z M116.66973,19.1655992 C116.605197,21.3567991 118.366663,22.4734658 119.633863,22.4734658 C120.622663,22.4734658 121.459997,21.9797325 121.738663,21.2702658 L116.66973,19.1655992 Z M124.402663,21.0557325 C123.930663,22.3234658 122.490663,24.6645324 119.547863,24.6645324 C116.62653,24.6645324 114.199463,22.3661324 114.199463,18.9937325 C114.199463,15.8145326 116.605197,13.3229327 119.827063,13.3229327 C122.426663,13.3229327 123.930663,14.9125326 124.55333,15.8359993 L122.619997,17.1250659 C121.975997,16.1797326 121.094663,15.5567993 119.827063,15.5567993 C118.559863,15.5567993 117.657863,16.1369326 117.077597,17.2750659 L124.659997,20.4114658 L124.402663,21.0557325 Z M63.9917314,22.9245324 L63.9917314,20.5187992 L69.7483979,20.5187992 C69.5765313,19.1655992 69.1254646,18.1775992 68.437998,17.4901326 C67.6005313,16.6521326 66.2901314,15.7286659 63.9917314,15.7286659 C60.4473315,15.7286659 57.6765316,18.5854659 57.6765316,22.1297325 C57.6765316,25.673999 60.4473315,28.531199 63.9917314,28.531199 C65.903598,28.531199 67.2994647,27.779199 68.3306646,26.8125323 L70.0275979,28.5093323 C68.5885313,29.8843989 66.6765313,30.9369322 63.9917314,30.9369322 C59.1369315,30.9369322 55.0557316,26.984399 55.0557316,22.1297325 C55.0557316,17.2750659 59.1369315,13.3229327 63.9917314,13.3229327 C66.6125313,13.3229327 68.5885313,14.1817327 70.1349313,15.7931993 C71.7245312,17.3827992 72.2187979,19.6166659 72.2187979,21.4207991 C72.2187979,21.9797325 72.1759979,22.4947991 72.0895979,22.9245324 L63.9917314,22.9245324 Z M78.7635977,15.5567993 C77.0447977,15.5567993 75.5625311,16.9745326 75.5625311,18.9937325 C75.5625311,21.0343991 77.0447977,22.4306658 78.7635977,22.4306658 C80.481731,22.4306658 81.9639976,21.0343991 81.9639976,18.9937325 C81.9639976,16.9745326 80.481731,15.5567993 78.7635977,15.5567993 L78.7635977,15.5567993 Z M78.7635977,24.6645324 C75.6270645,24.6645324 73.0707978,22.2802658 73.0707978,18.9937325 C73.0707978,15.7286659 75.6270645,13.3229327 78.7635977,13.3229327 C81.8994643,13.3229327 84.4557309,15.7286659 84.4557309,18.9937325 C84.4557309,22.2802658 81.8994643,24.6645324 78.7635977,24.6645324 Z M91.1811974,15.5567993 C89.4630641,15.5567993 87.9806641,16.9745326 87.9806641,18.9937325 C87.9806641,21.0343991 89.4630641,22.4306658 91.1811974,22.4306658 C92.899464,22.4306658 94.3817306,21.0343991 94.3817306,18.9937325 C94.3817306,16.9745326 92.899464,15.5567993 91.1811974,15.5567993 Z M91.1811974,24.6645324 C88.0447975,24.6645324 85.4890642,22.2802658 85.4890642,18.9937325 C85.4890642,15.7286659 88.0447975,13.3229327 91.1811974,13.3229327 C94.3171973,13.3229327 96.8734639,15.7286659 96.8734639,18.9937325 C96.8734639,22.2802658 94.3171973,24.6645324 91.1811974,24.6645324" id="path20" fill="#FFFFFF" fill-rule="nonzero"></path>
                        <g id="g22" transform="translate(13.533333, 10.466666)">
                            <g id="g24-Clipped">
                                <mask id="mask-2" fill="white">
                                    <use xlink:href="#path-1"></use>
                                </mask>
                                <g id="path26"></g>
                                <g id="g24" mask="url(#mask-2)" fill="url(#linearGradient-3)" fill-rule="nonzero">
                                    <path d="M0.813066646,0.0139999996 L0.713999982,0.108799997 C0.325999992,0.51933332 0.0969333309,1.15679997 0.0969333309,1.98226662 L0.0969333309,1.78799996 L0.0969333309,1.78799996 L0.0969333309,31.2759992 C0.0969333309,31.2786659 0.0969333309,31.2806659 0.0969333309,31.2827992 C0.0969333309,31.2802659 0.0969333309,31.2781326 0.0969333309,31.2754659 L0.0969333309,31.0806659 C0.0969333309,31.9745325 0.363999991,32.6478659 0.811466646,33.0515992 L17.3311996,16.5322663 L0.813066646,0.0139999996 M0.0969333309,31.2843992 C0.0969333309,31.3578659 0.0989333309,31.4291992 0.102666664,31.4994659 C0.0989333309,31.4297325 0.0969333309,31.3578659 0.0969333309,31.2843992" id="path44"></path>
                                </g>
                            </g>
                        </g>
                        <g id="g46" transform="translate(30.733332, 21.266666)">
                            <g id="g48-Clipped">
                                <mask id="mask-5" fill="white">
                                    <use xlink:href="#path-4"></use>
                                </mask>
                                <g id="path50"></g>
                                <g id="g48" mask="url(#mask-5)" fill="url(#linearGradient-6)" fill-rule="nonzero">
                                    <path d="M5.63693319,0.0286666659 L5.63693319,0.0286666659 L5.76253319,0.0999999975 L12.2863997,3.8067999 C12.9083997,4.1603999 13.322933,4.58906655 13.529733,5.04266654 C13.3234663,4.58906655 12.9087997,4.15986656 12.2863997,3.80626657 L5.76253319,0.0994666642 L5.63693319,0.0286666659 M5.63853319,0.223999994 L0.131199997,5.73226652 L5.63799986,11.2395997 L12.2863997,7.46253315 C13.1306663,6.98279983 13.6046663,6.36453317 13.6838663,5.73279986 C13.6838663,5.73226652 13.6838663,5.73119986 13.6838663,5.73026652 C13.6046663,5.09999987 13.1306663,4.48119989 12.2863997,4.0015999 L5.63853319,0.223999994" id="path64"></path>
                                </g>
                            </g>
                        </g>
                        <g id="g66" transform="translate(14.199999, 9.799999)">
                            <g id="g68-Clipped">
                                <mask id="mask-8" fill="white">
                                    <use xlink:href="#path-7"></use>
                                </mask>
                                <g id="path70"></g>
                                <g id="g68" mask="url(#mask-8)" fill="url(#linearGradient-9)" fill-rule="nonzero">
                                    <path d="M1.32399997,0.0515999987 C0.862533312,0.0515999987 0.459866655,0.201599995 0.145866663,0.484933321 L0.146399996,0.485466655 C0.460399988,0.202133328 0.863599978,0.0515999987 1.32506663,0.0515999987 C1.36506663,0.0515999987 1.4057333,0.0526666654 1.4469333,0.0546666653 C1.40519996,0.0526666654 1.36399997,0.0515999987 1.32399997,0.0515999987 M1.3245333,0.246931915 C0.863066645,0.246399994 0.460399988,0.396933323 0.146399996,0.68026665 L0.146399996,0.68026665 L0.146399996,0.68066665 L16.6645329,17.1989329 L22.1718661,11.6906664 L22.1718661,11.6906664 L2.8182666,0.694266649 C2.28279994,0.390666657 1.77546662,0.246931915 1.3245333,0.246931915 M0.14173333,0.488533321 C0.112533331,0.515066654 0.0838666646,0.543199986 0.0557333319,0.572399986 L0.14173333,0.488533321" id="path80"></path>
                                </g>
                            </g>
                        </g>
                        <g id="g82" transform="translate(14.333333, 26.866666)">
                            <g id="g84-Clipped">
                                <mask id="mask-11" fill="white">
                                    <use xlink:href="#path-10"></use>
                                </mask>
                                <g id="path86"></g>
                                <g id="g84" mask="url(#mask-11)" fill="url(#linearGradient-12)" fill-rule="nonzero">
                                    <path d="M16.5311996,0.132266663 L16.5311996,0.132266663 L0.0114666664,16.6515996 C0.325466659,16.9343996 0.727599982,17.0843996 1.1885333,17.0843996 C1.64066663,17.0843996 2.14839995,16.9401329 2.68493327,16.6359996 L22.0379994,5.63959986 L16.5311996,0.132266663 M22.1625328,5.76399986 L2.68493327,16.8306662 C2.14839995,17.1349329 1.64066663,17.2791996 1.1885333,17.2791996 C1.18639997,17.2791996 1.1849333,17.2791996 1.18279997,17.2791996 C1.18546664,17.2791996 1.18746664,17.2791996 1.19066664,17.2791996 C1.64173329,17.2791996 2.14893328,17.1354662 2.68493327,16.8311996 L22.1625328,5.76399986" id="path102"></path>
                                </g>
                            </g>
                        </g>
                        <path d="M15.6469326,9.8546661 C16.0661326,9.87866609 16.5302659,10.0229328 17.0182659,10.2994661 L36.3702654,21.2953325 L36.3702654,21.2953325 L17.0182659,10.2994661 C16.5306659,10.0223994 16.0661326,9.87866609 15.6469326,9.8546661" id="path104" fill="#000000" fill-rule="nonzero"></path>
                        <g id="g106" transform="translate(36.333332, 21.133332)">
                            <g id="g108-Clipped">
                                <mask id="mask-14" fill="white">
                                    <use xlink:href="#path-13"></use>
                                </mask>
                                <g id="path110"></g>
                                <g id="g108" mask="url(#mask-14)" fill="url(#linearGradient-15)" fill-rule="nonzero">
                                    <polyline id="path124" points="0.0369333324 0.161999996 0.0369333324 0.161999996 0.162533329 0.233333328 0.0369333324 0.161999996"></polyline>
                                </g>
                            </g>
                        </g>
                        <g id="g126" transform="translate(14.199999, 9.799999)">
                            <g id="g128-Clipped">
                                <mask id="mask-17" fill="white">
                                    <use xlink:href="#path-16"></use>
                                </mask>
                                <g id="path130"></g>
                                <g id="g128" mask="url(#mask-17)" fill="url(#linearGradient-18)" fill-rule="nonzero">
                                    <path d="M1.32506663,0.0515999987 C0.863599978,0.0515999987 0.460399988,0.202133328 0.146399996,0.485466655 L0.145866663,0.484933321 C0.144799996,0.485999988 0.143199996,0.487466654 0.14173333,0.488533321 L0.0557333319,0.572399986 C0.0530666653,0.575066652 0.0505333321,0.578133319 0.0473333321,0.581199985 L0.146399996,0.68026665 C0.460399988,0.396933323 0.863066645,0.246399994 1.3245333,0.246933327 C1.77546662,0.246933327 2.28279994,0.390666657 2.8182666,0.694266649 L22.1718661,11.6906664 L22.2958661,11.5666664 L22.1702661,11.495333 L2.8182666,0.499466654 C2.33026661,0.222933328 1.86613329,0.0786666647 1.4469333,0.0546666653 C1.4057333,0.0526666653 1.36506663,0.0515999987 1.32506663,0.0515999987" id="path140"></path>
                                </g>
                            </g>
                        </g>
                        <path d="M14.2473327,10.3806661 C13.8593327,10.7911994 13.630266,11.4286661 13.630266,12.2541327 L13.630266,12.254666 C13.630266,11.4286661 13.8593327,10.7917327 14.2473327,10.3811994 L14.2473327,10.3811994 L14.2473327,10.3811994 L14.2473327,10.3806661" id="path142" fill="#000000" fill-rule="nonzero"></path>
                        <g id="g144" transform="translate(13.533333, 10.333333)">
                            <g id="g146-Clipped">
                                <mask id="mask-20" fill="white">
                                    <use xlink:href="#path-19"></use>
                                </mask>
                                <g id="path148"></g>
                                <g id="g146" mask="url(#mask-20)" fill="url(#linearGradient-21)" fill-rule="nonzero">
                                    <path d="M0.713999982,0.0478666655 L0.713999982,0.0478666655 C0.325999992,0.458399989 0.0969333309,1.09533331 0.0969333309,1.92133329 L0.0969333309,2.11559995 C0.0969333309,1.2901333 0.325999992,0.65266665 0.713999982,0.242133327 L0.813066646,0.14733333 L0.713999982,0.0478666655" id="path166"></path>
                                </g>
                            </g>
                        </g>
                        <g id="g168" transform="translate(14.199999, 10.333333)">
                            <g id="g170-Clipped">
                                <mask id="mask-23" fill="white">
                                    <use xlink:href="#path-22"></use>
                                </mask>
                                <g id="path172"></g>
                                <g id="g170" mask="url(#mask-23)" fill="url(#linearGradient-24)" fill-rule="nonzero">
                                    <polyline id="path182" points="0.0473333321 0.0478666655 0.0473333321 0.0478666655 0.0473333321 0.0478666655 0.146399996 0.14733333 0.146399996 0.14693333 0.0473333321 0.0478666655"></polyline>
                                </g>
                            </g>
                        </g>
                        <path d="M44.2630652,26.3093324 C44.3655986,26.534399 44.4171986,26.765599 44.4171986,26.9969323 C44.4171986,26.9973323 44.4171986,26.9978657 44.4171986,26.9978657 C44.4171986,26.7661323 44.3655986,26.5349323 44.2630652,26.3093324" id="path184" fill="#000000" fill-rule="nonzero"></path>
                        <g id="g186" transform="translate(36.333332, 21.266666)">
                            <g id="g188-Clipped">
                                <mask id="mask-26" fill="white">
                                    <use xlink:href="#path-25"></use>
                                </mask>
                                <g id="path190"></g>
                                <g id="g188" mask="url(#mask-26)" fill="url(#linearGradient-27)" fill-rule="nonzero">
                                    <path d="M0.162533329,0.0999999975 L0.162533329,0.0999999975 L0.0385333324,0.223999994 L6.68639983,4.0015999 C7.53066648,4.48119989 8.00466647,5.1 8.08386646,5.73026652 C8.08386646,5.4989332 8.03226647,5.2677332 7.92973314,5.04266654 C7.72293314,4.58906655 7.30839982,4.1603999 6.68639983,3.8067999 L0.162533329,0.0999999975" id="path204"></path>
                                </g>
                            </g>
                        </g>
                        <path d="M44.4172004,26.9989323 L44.4172004,26.9994657 C44.4166652,27.6969323 43.9505319,28.3942656 43.0197319,28.9234656 L36.4958654,32.6302655 L36.4953321,32.6302655 L36.4958654,32.6306655 L43.0197319,28.923999 C43.9515986,28.394799 44.4182652,27.696399 44.4172004,26.9989323" id="path206" fill="#404040" fill-rule="nonzero"></path>
                        <g id="g208" transform="translate(36.333332, 26.866666)">
                            <g id="g210-Clipped">
                                <mask id="mask-29" fill="white">
                                    <use xlink:href="#path-28"></use>
                                </mask>
                                <g id="path212"></g>
                                <g id="g210" mask="url(#mask-29)" fill="url(#linearGradient-30)" fill-rule="nonzero">
                                    <path d="M8.08386646,0.132799997 C8.00466647,0.764533314 7.53066648,1.38279997 6.68639983,1.86253329 L0.0379999991,5.63959986 L0.161999996,5.76359986 L0.162533329,5.76359986 L6.68639983,2.05679995 C7.61719981,1.52759996 8.08333313,0.830266646 8.08386646,0.132799997" id="path226"></path>
                                </g>
                            </g>
                        </g>
                        <path d="M13.6363993,41.9802653 C13.7135993,43.3499986 14.4583993,44.1411986 15.5119993,44.1458652 C15.0551993,44.1431986 14.6573326,43.9931986 14.345866,43.7125319 L14.345866,43.7130652 L14.3421326,43.7093319 C14.3093327,43.6797319 14.2781327,43.6483986 14.2473327,43.6161319 L14.2473327,43.6161319 C13.8973327,43.2458653 13.6765327,42.6911986 13.6363993,41.9802653" id="path228" fill="#404040" fill-rule="nonzero"></path>
                        <g id="g230" transform="translate(13.533333, 41.533332)">
                            <g id="g232-Clipped">
                                <mask id="mask-32" fill="white">
                                    <use xlink:href="#path-31"></use>
                                </mask>
                                <g id="path234"></g>
                                <g id="g232" mask="url(#mask-32)" fill="url(#linearGradient-33)" fill-rule="nonzero">
                                    <path d="M0.0969333309,0.0139999997 L0.0969333309,0.208799995 C0.0969333309,0.211466661 0.0969333309,0.213599995 0.0969333309,0.216133328 C0.0969333309,0.216666661 0.0969333309,0.217199995 0.0969333309,0.217733328 C0.0969333309,0.291199993 0.0989333309,0.363066658 0.102666664,0.432799989 C0.102666664,0.433866656 0.102666664,0.434933322 0.102666664,0.435999989 C0.102666664,0.436933322 0.102666664,0.437999989 0.103066664,0.439066656 C0.103066664,0.441199989 0.103066664,0.443199989 0.103066664,0.445333322 C0.103066664,0.445866656 0.103066664,0.446399989 0.103066664,0.446933322 C0.143199996,1.15786664 0.363999991,1.71253329 0.713999982,2.08279995 L0.713999982,2.08279995 L0.713999982,2.08279995 L0.811466646,1.98493328 C0.363999991,1.58119996 0.0969333309,0.907866644 0.0969333309,0.0139999997" id="path252"></path>
                                </g>
                            </g>
                        </g>
                        <path d="M15.5119993,44.1458652 C15.513066,44.1458652 15.5145326,44.1458652 15.5161326,44.1458652 C15.5145326,44.1458652 15.513066,44.1458652 15.5119993,44.1458652" id="path254" fill="#404040" fill-rule="nonzero"></path>
                        <g id="g256" transform="translate(14.199999, 32.466666)">
                            <g id="g258-Clipped">
                                <mask id="mask-35" fill="white">
                                    <use xlink:href="#path-34"></use>
                                </mask>
                                <g id="path260"></g>
                                <g id="g258" mask="url(#mask-35)" fill="url(#linearGradient-36)" fill-rule="nonzero">
                                    <path d="M22.1713328,0.039599999 L2.8182666,11.0359997 C2.28173328,11.340133 1.77399996,11.4843997 1.32186663,11.4843997 C0.860933312,11.4843997 0.458799989,11.3343997 0.144799996,11.0515997 L0.0473333321,11.1494664 L0.0473333321,11.1494664 C0.0781333314,11.1817331 0.109333331,11.2130664 0.14213333,11.2426664 C0.143199996,11.2437331 0.144799996,11.2447997 0.145866663,11.2458664 C0.457333322,11.526533 0.855199979,11.676533 1.31199997,11.6791997 L1.31199997,11.6791997 C1.31306663,11.6791997 1.3145333,11.6791997 1.3161333,11.6791997 C1.31826663,11.6791997 1.3197333,11.6791997 1.32186663,11.6791997 C1.77399996,11.6791997 2.28173328,11.534933 2.8182666,11.2306664 L22.2958661,0.163999996 L22.2953328,0.163599996 L22.1713328,0.039599999" id="path276"></path>
                                </g>
                            </g>
                        </g>
                        <path d="M56.8510649,38.0369321 C57.4431982,37.4374654 58.1671982,37.1379987 59.0239982,37.1379987 C59.8806648,37.1379987 60.6062648,37.4374654 61.1973315,38.0369321 C61.7895981,38.6363987 62.0863981,39.4026654 62.0863981,40.333332 C62.0863981,41.2639986 61.7895981,42.0302653 61.1973315,42.6297319 C60.6062648,43.2291986 59.8806648,43.5286653 59.0239982,43.5286653 C58.1671982,43.5286653 57.4431982,43.2291986 56.8510649,42.6297319 C56.2598649,42.0302653 55.9630649,41.2639986 55.9630649,40.333332 C55.9630649,39.4026654 56.2598649,38.6363987 56.8510649,38.0369321 Z M61.9578648,37.3671987 C61.1713315,36.5583988 60.1931982,36.1546654 59.0239982,36.1546654 C57.8546649,36.1546654 56.8770649,36.5583988 56.0917316,37.3671987 C55.3051983,38.1750654 54.9135983,39.1639987 54.9135983,40.333332 C54.9135983,41.5026653 55.3051983,42.4917319 56.0917316,43.2994653 C56.8770649,44.1083986 57.8546649,44.5125319 59.0239982,44.5125319 C60.1869315,44.5125319 61.1619981,44.1062652 61.9526648,43.2942653 C62.7417314,42.4822653 63.1359981,41.495332 63.1359981,40.333332 C63.1359981,39.1639987 62.7426648,38.1750654 61.9578648,37.3671987" id="path278" fill="#FFFFFF" fill-rule="nonzero"></path>
                        <path d="M56.8510649,38.0369321 L56.7562649,37.9431987 C57.3702649,37.3197321 58.1363982,37.0030654 59.0239982,37.0046594 C59.9119982,37.0030654 60.6791982,37.3197321 61.2921315,37.9431987 C61.9098648,38.5671987 62.2213315,39.374532 62.2197376,40.333332 C62.2213315,41.292132 61.9098648,42.0994653 61.2921315,42.7234653 L61.2921315,42.7234653 C60.6791982,43.3469319 59.9119982,43.6635986 59.0239982,43.6620046 C58.1363982,43.6635986 57.3702649,43.3469319 56.7562649,42.7234653 L56.7562649,42.7234653 C56.1395983,42.0994653 55.8281316,41.292132 55.8297255,40.333332 C55.8281316,39.374532 56.1395983,38.5671987 56.7562649,37.9431987 L56.8510649,38.0369321 L56.9458649,38.1306654 C56.3802649,38.7062654 56.0973316,39.4302654 56.0963983,40.333332 C56.0973316,41.2363986 56.3802649,41.9603986 56.9458649,42.5359986 L56.9458649,42.5359986 C57.5161316,43.1114653 58.1983982,43.3937319 59.0239982,43.3953319 C59.8499982,43.3937319 60.5327982,43.1114653 61.1021315,42.5359986 L61.1026648,42.5359986 C61.6693315,41.9603986 61.9521315,41.2363986 61.9530648,40.333332 C61.9521315,39.4302654 61.6693315,38.7062654 61.1026648,38.1306654 C60.5327982,37.5551987 59.8499982,37.2729321 59.0239982,37.2713321 C58.1983982,37.2729321 57.5161316,37.5551987 56.9458649,38.1306654 L56.8510649,38.0369321 Z M61.9578648,37.3671987 L61.8619981,37.4598654 C61.0978648,36.6765321 60.1630648,36.2895988 59.0239982,36.2879988 C57.8854649,36.2895988 56.9505316,36.6765321 56.1874649,37.4598654 L56.1874649,37.4598654 C55.4245316,38.2458654 55.047865,39.193732 55.0469316,40.333332 C55.047865,41.472932 55.4245316,42.4207986 56.1874649,43.2067986 L56.1874649,43.2067986 C56.9505316,43.9901319 57.8854649,44.3775986 59.0239982,44.3791986 C60.1557315,44.3775986 61.0885315,43.9885319 61.8567981,43.2010653 C62.6229314,42.4114653 63.0015981,41.4650653 63.0026648,40.333332 C63.0015981,39.193732 62.6239981,38.2458654 61.8619981,37.4598654 L61.9578648,37.3671987 L62.0530648,37.2745321 C62.8619981,38.1046654 63.2707981,39.1343987 63.2693354,40.333332 C63.2707981,41.5254653 62.8603981,42.5530653 62.0478648,43.3869319 C61.2359981,44.2239986 60.2177315,44.6473319 59.0239982,44.645869 C57.8245316,44.6473319 56.8035983,44.2259986 55.9963983,43.3921319 L55.9963983,43.3926653 C55.1859983,42.5619986 54.778665,41.5322653 54.7802603,40.333332 C54.778665,39.1343987 55.1859983,38.1046654 55.9963983,37.2739987 L55.9963983,37.2745321 C56.8035983,36.4406654 57.8245316,36.0202654 59.0239982,36.0213301 C60.2239982,36.0202654 61.2447981,36.4406654 62.0530648,37.2745321 L61.9578648,37.3671987" id="path280" fill="#FFFFFF" fill-rule="nonzero"></path>
                        <polyline id="path282" fill="#FFFFFF" fill-rule="nonzero" points="64.5786647 36.3333321 64.5786647 44.3333319 65.8302647 44.3333319 69.7182646 38.1098654 69.7625313 38.1098654 69.7182646 39.6515987 69.7182646 44.3333319 70.7469312 44.3333319 70.7469312 36.3333321 69.6739979 36.3333321 65.6062647 42.8583986 65.561998 42.8583986 65.6062647 41.316132 65.6062647 36.3333321 64.5786647 36.3333321"></polyline>
                        <polyline id="path284" fill="#FFFFFF" fill-rule="nonzero" points="64.5786647 36.3333321 64.7119981 36.3333321 64.7119981 44.1999986 65.7562647 44.1999986 69.6442646 37.9765321 69.7625313 37.9765321 69.8994646 37.9765321 69.8515979 39.6535987 69.8515979 44.1999986 70.6135979 44.1999986 70.6135979 36.4666654 69.7478646 36.4666654 65.6802647 42.9917319 65.561998 42.9917319 65.4245314 42.9917319 65.4729314 41.3139986 65.4729314 36.4666654 64.5786647 36.4666654 64.5786647 36.3333321 64.7119981 36.3333321 64.5786647 36.3333321 64.5786647 36.1999988 65.6062647 36.1999988 65.739598 36.1999988 65.739598 41.3182653 65.6953314 42.8619986 65.561998 42.8583986 65.561998 42.7250653 65.6062647 42.7250653 65.6062647 42.8583986 65.4926647 42.7874653 69.5999979 36.1999988 70.7469312 36.1999988 70.8802646 36.1999988 70.8802646 44.4666652 69.7182646 44.4666652 69.5849313 44.4666652 69.5849313 39.6499987 69.6291979 38.1062654 69.7625313 38.1098654 69.7625313 38.2431987 69.7182646 38.2431987 69.7182646 38.1098654 69.8311979 38.1806654 65.9041314 44.4666652 64.5786647 44.4666652 64.4453314 44.4666652 64.4453314 36.1999988 64.5786647 36.1999988 64.5786647 36.3333321"></polyline>
                        <polyline id="path286" fill="#FFFFFF" fill-rule="nonzero" points="75.3041311 36.3333321 74.2754645 36.3333321 74.2754645 43.3505319 72.0411979 43.3505319 72.0411979 44.3333319 77.5385311 44.3333319 77.5385311 43.3505319 75.3041311 43.3505319 75.3041311 36.3333321"></polyline>
                        <polyline id="path288" fill="#FFFFFF" fill-rule="nonzero" points="75.3041311 36.3333321 75.3041311 36.4666654 74.4087978 36.4666654 74.4087978 43.4838653 72.1745312 43.4838653 72.1745312 44.1999986 77.4051977 44.1999986 77.4051977 43.4838653 75.1707978 43.4838653 75.1707978 36.3333321 75.3041311 36.3333321 75.3041311 36.4666654 75.3041311 36.3333321 75.4374645 36.3333321 75.4374645 43.2171986 77.6718644 43.2171986 77.6718644 44.3333319 77.6718644 44.4666652 71.9078645 44.4666652 71.9078645 43.3505319 71.9078645 43.2171986 74.1421312 43.2171986 74.1421312 36.1999988 75.3041311 36.1999988 75.4374645 36.1999988 75.4374645 36.3333321 75.3041311 36.3333321"></polyline>
                        <path d="M79.862531,37.3161321 L81.281731,37.3161321 C82.2051976,37.3161321 82.9369309,37.5806654 83.4770643,38.1098654 C84.0177309,38.638532 84.2869309,39.3802654 84.2869309,40.333332 C84.2869309,41.2791986 84.0177309,42.0182653 83.4770643,42.5515986 C82.9369309,43.0833319 82.2051976,43.3505319 81.281731,43.3505319 L79.862531,43.3505319 L79.862531,37.3161321 Z M78.8354644,36.3333321 L78.8354644,44.3333321 L81.281731,44.3333321 C82.5109309,44.3333321 83.4942643,43.9630652 84.2322642,43.2213319 C84.9693309,42.4806653 85.3379975,41.5182653 85.3379975,40.3333321 C85.3379975,39.148932 84.9693309,38.1859987 84.2322642,37.4453321 C83.4942643,36.7035988 82.5109309,36.3333321 81.281731,36.3333321 L78.8354644,36.3333321" id="path290" fill="#FFFFFF" fill-rule="nonzero"></path>
                        <path d="M79.862531,37.3161321 L79.862531,37.1827957 L81.281731,37.1827957 C82.229731,37.1817321 83.0026643,37.4573321 83.5702643,38.0145321 C84.1411976,38.5723987 84.4213309,39.3562654 84.4202673,40.333332 C84.4213309,41.3030653 84.1411976,42.084932 83.5707976,42.6463986 L83.5707976,42.6463986 C83.0030643,43.2067986 82.229731,43.4849319 81.281731,43.4838683 L79.862531,43.4838683 L79.7291977,43.4838683 L79.7291977,37.1827957 L79.862531,37.1827957 L79.862531,37.3161321 L79.9958643,37.3161321 L79.9958643,43.2171986 L81.281731,43.2171986 C82.1802643,43.2155986 82.8707976,42.9598653 83.3838643,42.4562653 L83.3838643,42.4567986 C83.8942642,41.9515986 84.1526642,41.2551986 84.1535976,40.333332 C84.1526642,39.404132 83.8937309,38.7051987 83.3838643,38.2051987 C82.8713309,37.7041321 82.1806643,37.4510654 81.281731,37.4494654 L79.862531,37.4494654 L79.862531,37.3161321 L79.9958643,37.3161321 L79.862531,37.3161321 Z M78.8354644,36.3333321 L78.9687977,36.3333321 L78.9687977,44.1999965 L81.281731,44.1999965 C82.4854643,44.1989319 83.4259976,43.8411986 84.1379976,43.1270653 C84.8483976,42.4114653 85.2030642,41.4911986 85.2046642,40.333332 C85.2030642,39.1759987 84.8483976,38.2551987 84.1379976,37.5395987 C83.4259976,36.8254654 82.4854643,36.4677321 81.281731,36.4666654 L78.8354644,36.4666654 L78.8354644,36.3333321 L78.9687977,36.3333321 L78.8354644,36.3333321 L78.8354644,36.1999965 L81.281731,36.1999965 C82.5369309,36.1989321 83.5625309,36.5817321 84.3270642,37.3510654 C85.0906642,38.1171987 85.4723975,39.1223987 85.4713331,40.333332 C85.4723975,41.545332 85.0906642,42.5494653 84.3270642,43.3150653 C83.5625309,44.0849319 82.5369309,44.4677319 81.281731,44.4666675 L78.702131,44.4666675 L78.702131,36.1999965 L78.8354644,36.1999965 L78.8354644,36.3333321" id="path292" fill="#FFFFFF" fill-rule="nonzero"></path>
                        <polyline id="path294" fill="#FFFFFF" fill-rule="nonzero" points="91.4489307 43.3505319 87.8051975 43.3505319 87.8051975 40.8139987 91.0911974 40.8139987 91.0911974 39.8526653 87.8051975 39.8526653 87.8051975 37.3161321 91.4489307 37.3161321 91.4489307 36.3333321 86.7781308 36.3333321 86.7781308 44.3333319 91.4489307 44.3333319 91.4489307 43.3505319"></polyline>
                        <polyline id="path296" fill="#FFFFFF" fill-rule="nonzero" points="91.4489307 43.3505319 91.4489307 43.4838653 87.6718641 43.4838653 87.6718641 40.6806653 90.9578641 40.6806653 90.9578641 39.9859987 87.6718641 39.9859987 87.6718641 37.1827987 91.3155974 37.1827987 91.3155974 36.4666654 86.9114642 36.4666654 86.9114642 44.1999986 91.3155974 44.1999986 91.3155974 43.3505319 91.4489307 43.3505319 91.4489307 43.4838653 91.4489307 43.3505319 91.5822641 43.3505319 91.5822641 44.3333319 91.5822641 44.4666652 86.6447975 44.4666652 86.6447975 36.1999988 91.5822641 36.1999988 91.5822641 37.3161321 91.5822641 37.4494654 87.9385308 37.4494654 87.9385308 39.719332 91.2245307 39.719332 91.2245307 40.8139987 91.2245307 40.947332 87.9385308 40.947332 87.9385308 43.2171986 91.5822641 43.2171986 91.5822641 43.3505319 91.4489307 43.3505319"></polyline>
                        <polyline id="path298" fill="#FFFFFF" fill-rule="nonzero" points="98.9806639 44.3333319 98.9806639 44.2890652 96.0078639 40.8583987 99.1806639 36.3775988 99.1806639 36.3333321 97.9193306 36.3333321 95.315064 40.0650653 94.0859973 38.6458654 94.0859973 36.3333321 93.0583973 36.3333321 93.0583973 44.3333319 94.0859973 44.3333319 94.0859973 40.210932 94.1311973 40.210932 97.6510639 44.3333319 98.9806639 44.3333319"></polyline>
                        <polyline id="path300" fill="#FFFFFF" fill-rule="nonzero" points="98.9806639 44.3333319 98.8469305 44.3333319 98.8469305 44.2890652 98.9806639 44.2890652 98.8797305 44.3765319 95.8385306 40.866132 99.0473305 36.3354654 99.0473305 36.3333321 99.1806639 36.3333321 99.1806639 36.4666654 97.9890639 36.4666654 95.3265306 40.281732 93.952664 38.6958654 93.952664 36.4666654 93.1917307 36.4666654 93.1917307 44.1999986 93.952664 44.1999986 93.952664 40.0775987 94.1311973 40.0775987 94.192664 40.0775987 97.7125306 44.1999986 98.9806639 44.1999986 98.9806639 44.3333319 98.8469305 44.3333319 98.9806639 44.3333319 98.9806639 44.4666652 97.6510639 44.4666652 97.5895972 44.4666652 94.030264 40.297332 94.1311973 40.210932 94.1311973 40.3442653 94.0859973 40.3442653 94.0859973 40.210932 94.2193307 40.210932 94.2193307 44.4666652 93.0583973 44.4666652 92.925064 44.4666652 92.925064 36.1999988 94.0859973 36.1999988 94.2193307 36.1999988 94.2193307 38.5963987 95.3035973 39.8483987 97.8494639 36.1999988 99.1806639 36.1999988 99.3139972 36.1999988 99.3139972 36.3775988 99.3139972 36.4197321 96.1770639 40.8499987 99.1139972 44.2395986 99.1139972 44.3333319 99.1139972 44.4666652 98.9806639 44.4666652 98.9806639 44.3333319"></polyline>
                        <polyline id="path302" fill="#FFFFFF" fill-rule="nonzero" points="102.913064 36.3333321 102.913064 44.3333319 103.94013 44.3333319 103.94013 40.9035987 107.94013 40.9035987 107.94013 44.3333319 108.968797 44.3333319 108.968797 36.3333321 107.94013 36.3333321 107.94013 39.9426653 103.94013 39.9426653 103.94013 36.3333321 102.913064 36.3333321"></polyline>
                        <polyline id="path304" fill="#FFFFFF" fill-rule="nonzero" points="102.913064 36.3333321 103.046397 36.3333321 103.046397 44.1999986 103.806797 44.1999986 103.806797 40.7702653 108.073464 40.7702653 108.073464 44.1999986 108.835464 44.1999986 108.835464 36.4666654 108.073464 36.4666654 108.073464 40.0759987 103.806797 40.0759987 103.806797 36.4666654 102.913064 36.4666654 102.913064 36.3333321 103.046397 36.3333321 102.913064 36.3333321 102.913064 36.1999988 103.94013 36.1999988 104.073464 36.1999988 104.073464 39.809332 107.806797 39.809332 107.806797 36.1999988 108.968797 36.1999988 109.10213 36.1999988 109.10213 44.4666652 107.94013 44.4666652 107.806797 44.4666652 107.806797 41.036932 104.073464 41.036932 104.073464 44.4666652 102.913064 44.4666652 102.77973 44.4666652 102.77973 36.1999988 102.913064 36.1999988 102.913064 36.3333321"></polyline>
                        <polyline id="path306" fill="#FFFFFF" fill-rule="nonzero" points="115.47293 43.3505319 111.82973 43.3505319 111.82973 40.8139987 115.11453 40.8139987 115.11453 39.8526653 111.82973 39.8526653 111.82973 37.3161321 115.47293 37.3161321 115.47293 36.3333321 110.80213 36.3333321 110.80213 44.3333319 115.47293 44.3333319 115.47293 43.3505319"></polyline>
                        <polyline id="path308" fill="#FFFFFF" fill-rule="nonzero" points="115.47293 43.3505319 115.47293 43.4838653 111.696397 43.4838653 111.696397 40.6806653 114.981197 40.6806653 114.981197 39.9863987 111.696397 39.9859987 111.696397 37.1827987 115.339597 37.1827987 115.339597 36.4666654 110.935464 36.4666654 110.935464 44.1999986 115.339597 44.1999986 115.339597 43.3505319 115.47293 43.3505319 115.47293 43.4838653 115.47293 43.3505319 115.606263 43.3505319 115.606263 44.3333319 115.606263 44.4666652 110.668797 44.4666652 110.668797 36.1999988 115.606263 36.1999988 115.606263 37.3161321 115.606263 37.4494654 111.963064 37.4494654 111.963064 39.719332 115.247863 39.719332 115.247863 40.8139987 115.247863 40.947332 111.963064 40.947332 111.963064 43.2171986 115.606263 43.2171986 115.606263 43.3505319 115.47293 43.3505319"></polyline>
                        <polyline id="path310" fill="#FFFFFF" fill-rule="nonzero" points="119.808397 36.3333321 118.780263 36.3333321 118.780263 43.3505319 116.545863 43.3505319 116.545863 44.3333319 122.042663 44.3333319 122.042663 43.3505319 119.808397 43.3505319 119.808397 36.3333321"></polyline>
                        <polyline id="path312" fill="#FFFFFF" fill-rule="nonzero" points="119.808397 36.3333321 119.808397 36.4666654 118.913063 36.4666654 118.913597 43.4838653 116.679197 43.4838653 116.679197 44.1999986 121.90933 44.1999986 121.90933 43.4838653 119.675063 43.4838653 119.675063 36.3333321 119.808397 36.3333321 119.808397 36.4666654 119.808397 36.3333321 119.94173 36.3333321 119.94173 43.2171986 122.175997 43.2171986 122.175997 44.3333319 122.175997 44.4666652 116.41253 44.4666652 116.41253 43.3505319 116.41253 43.2171986 118.64693 43.2171986 118.64693 36.1999988 119.808397 36.1999988 119.94173 36.1999988 119.94173 36.3333321 119.808397 36.3333321"></polyline>
                        <path d="M127.343996,38.0369321 C127.935996,37.4374654 128.659996,37.1379987 129.51733,37.1379987 C130.37333,37.1379987 131.098663,37.4374654 131.690663,38.0369321 C132.282663,38.6363987 132.579996,39.4026654 132.579996,40.333332 C132.579996,41.2639986 132.282663,42.0302653 131.690663,42.6297319 C131.098663,43.2291986 130.37333,43.5286653 129.51733,43.5286653 C128.659996,43.5286653 127.935996,43.2291986 127.343996,42.6297319 C126.751997,42.0302653 126.455997,41.2639986 126.455997,40.333332 C126.455997,39.4026654 126.751997,38.6363987 127.343996,38.0369321 Z M132.450663,37.3671987 C131.663996,36.5583988 130.686663,36.1546654 129.51733,36.1546654 C128.347996,36.1546654 127.36933,36.5583988 126.583997,37.3671987 C125.798663,38.1750654 125.406663,39.1639987 125.406663,40.333332 C125.406663,41.5026653 125.798663,42.4917319 126.583997,43.2994653 C127.36933,44.1083986 128.347996,44.5125319 129.51733,44.5125319 C130.679996,44.5125319 131.654663,44.1062652 132.44533,43.2942653 C133.234663,42.4822653 133.62933,41.495332 133.62933,40.333332 C133.62933,39.1639987 133.235996,38.1750654 132.450663,37.3671987" id="path314" fill="#FFFFFF" fill-rule="nonzero"></path>
                        <path d="M127.343996,38.0369321 L127.24933,37.9431987 C127.862663,37.3197321 128.62933,37.0030654 129.51733,37.0046594 C130.40533,37.0030654 131.171996,37.3197321 131.78533,37.9431987 C132.402663,38.5671987 132.714663,39.374532 132.713334,40.333332 C132.714663,41.292132 132.402663,42.0994653 131.78533,42.7234653 L131.78533,42.7234653 C131.171996,43.3469319 130.40533,43.6635986 129.51733,43.6620046 C128.62933,43.6635986 127.862663,43.3469319 127.24933,42.7234653 L127.24933,42.7234653 C126.631997,42.0994653 126.32133,41.292132 126.322659,40.333332 C126.32133,39.374532 126.631997,38.5671987 127.24933,37.9431987 L127.343996,38.0369321 L127.438663,38.1306654 C126.87333,38.7062654 126.590663,39.4302654 126.58933,40.333332 C126.590663,41.2363986 126.87333,41.9603986 127.438663,42.5359986 L127.438663,42.5359986 C128.00933,43.1114653 128.690663,43.3937319 129.51733,43.3953319 C130.342663,43.3937319 131.02533,43.1114653 131.594663,42.5359986 L131.599996,42.5317319 L131.594663,42.5359986 C132.162663,41.9603986 132.44533,41.2363986 132.446663,40.333332 C132.44533,39.4302654 132.162663,38.7062654 131.594663,38.1306654 C131.02533,37.5551987 130.342663,37.2729321 129.51733,37.2713321 C128.690663,37.2729321 128.00933,37.5551987 127.438663,38.1306654 L127.343996,38.0369321 Z M132.450663,37.3671987 L132.354663,37.4598654 C131.590663,36.6765321 130.655996,36.2895988 129.51733,36.2879988 C128.378663,36.2895988 127.442663,36.6765321 126.679997,37.4598654 L126.679997,37.4598654 C125.91733,38.2458654 125.54133,39.193732 125.539997,40.333332 C125.54133,41.472932 125.91733,42.4207986 126.679997,43.2067986 L126.679997,43.2067986 C127.442663,43.9901319 128.378663,44.3775986 129.51733,44.3791986 C130.64933,44.3775986 131.58133,43.9885319 132.34933,43.2010653 C133.115996,42.4114653 133.494663,41.4650653 133.495996,40.333332 C133.494663,39.193732 133.115996,38.2458654 132.354663,37.4598654 L132.450663,37.3671987 L132.546663,37.2745321 C133.354663,38.1046654 133.763996,39.1343987 133.762666,40.333332 C133.763996,41.5254653 133.35333,42.5530653 132.54133,43.3869319 C131.727996,44.2239986 130.710663,44.6473319 129.51733,44.645869 C128.31733,44.6473319 127.295996,44.2259986 126.48933,43.3921319 L126.48933,43.3926653 C125.678663,42.5619986 125.271997,41.5322653 125.273327,40.333332 C125.271997,39.1343987 125.678663,38.1046654 126.48933,37.2739987 L126.48933,37.2745321 C127.295996,36.4406654 128.31733,36.0202654 129.51733,36.0213301 C130.71733,36.0202654 131.73733,36.4406654 132.546663,37.2745321 L132.450663,37.3671987" id="path316" fill="#FFFFFF" fill-rule="nonzero"></path>
                        <path d="M136.09733,40.557332 L137.818663,40.557332 C138.250663,40.557332 138.59733,40.702132 138.858663,40.992132 C139.118663,41.283332 139.24933,41.6026653 139.24933,41.9530653 C139.24933,42.3030653 139.118663,42.6239986 138.858663,42.9139986 C138.59733,43.2051986 138.250663,43.3505319 137.818663,43.3505319 L136.09733,43.3505319 L136.09733,40.557332 Z M136.09733,36.3333321 L135.070663,36.3333321 L135.070663,44.3333321 L137.79733,44.3333321 C138.47333,44.3333321 139.06133,44.1083986 139.555996,43.6578653 C140.051996,43.2073319 140.299996,42.6385319 140.299996,41.9530653 C140.299996,41.2682653 140.051996,40.700532 139.555996,40.2499987 C139.06133,39.798932 138.47333,39.5734654 137.79733,39.5734654 L136.09733,39.5734654 L136.09733,36.3333321" id="path318" fill="#FFFFFF" fill-rule="nonzero"></path>
                        <path d="M136.09733,40.557332 L136.09733,40.4239869 L137.818663,40.4239869 C138.279996,40.4223987 138.67333,40.5838653 138.95733,40.9030653 L138.95733,40.9030653 C139.235996,41.2130653 139.382663,41.569332 139.382663,41.9530653 C139.382663,42.3369319 139.235996,42.6937319 138.95733,43.0030653 L138.95733,43.0030653 C138.67333,43.3234653 138.279996,43.4854653 137.818663,43.483877 L136.09733,43.483877 L135.963996,43.483877 L135.963996,40.4239869 L136.09733,40.4239869 L136.09733,40.557332 L136.230663,40.557332 L136.230663,43.2171986 L137.818663,43.2171986 C138.222663,43.2150653 138.522663,43.0869319 138.758663,42.8250653 L138.758663,42.8250653 C139.00133,42.5535986 139.114663,42.269732 139.115996,41.9530653 C139.114663,41.6363986 139.00133,41.3535986 138.758663,41.0811986 L138.758663,41.0811986 C138.522663,40.819732 138.222663,40.692132 137.818663,40.6906653 L136.09733,40.6906653 L136.09733,40.557332 L136.230663,40.557332 L136.09733,40.557332 Z M136.09733,36.3333321 L136.09733,36.4666654 L135.203996,36.4666654 L135.203996,44.1999988 L137.79733,44.1999988 C138.443996,44.1989319 138.99333,43.9879986 139.466663,43.5587986 L139.466663,43.5587986 C139.935996,43.1302653 140.163996,42.6067986 140.166663,41.9530653 C140.163996,41.300532 139.935996,40.7775987 139.466663,40.3483987 L139.466663,40.3483987 C138.99333,39.9187987 138.443996,39.7078653 137.79733,39.7067987 L136.09733,39.7067987 L135.963996,39.7067987 L135.963996,36.3333321 L136.09733,36.3333321 L136.09733,36.4666654 L136.09733,36.3333321 L136.230663,36.3333321 L136.230663,39.440132 L137.79733,39.440132 C138.503996,39.4390654 139.12933,39.6791987 139.64533,40.1515987 L139.64533,40.1515987 C140.167996,40.6234653 140.434663,41.2359986 140.433334,41.9530653 C140.434663,42.6707986 140.167996,43.2838653 139.64533,43.7562652 L139.64533,43.7562652 C139.12933,44.2281319 138.503996,44.4677319 137.79733,44.4666688 L134.93733,44.4666688 L134.93733,36.1999988 L136.09733,36.1999988 L136.230663,36.1999988 L136.230663,36.3333321 L136.09733,36.3333321" id="path320" fill="#FFFFFF" fill-rule="nonzero"></path>
                    </g>
                </g>
            </g>
        </g>
    </g>
</svg>