<?xml version="1.0" standalone="no"?>
<!DOCTYPE svg PUBLIC "-//W3C//DTD SVG 20010904//EN"
 "http://www.w3.org/TR/2001/REC-SVG-20010904/DTD/svg10.dtd">
<svg version="1.0" xmlns="http://www.w3.org/2000/svg"
 width="1024.000000pt" height="1024.000000pt" viewBox="0 0 1024.000000 1024.000000"
 preserveAspectRatio="xMidYMid meet">
<metadata>
Created by potrace 1.11, written by Peter Selinger 2001-2013
</metadata>
<g transform="translate(0.000000,1024.000000) scale(0.100000,-0.100000)"
fill="#000000" stroke="none">
<path d="M0 5120 l0 -5120 5120 0 5120 0 0 5120 0 5120 -5120 0 -5120 0 0
-5120z m5545 3986 c445 -55 830 -171 1225 -371 849 -430 1506 -1197 1800
-2101 300 -924 217 -1936 -231 -2793 -179 -342 -377 -611 -658 -891 -372 -372
-793 -643 -1289 -830 l-125 -47 -23 -99 c-110 -487 -530 -838 -1030 -861 -385
-18 -743 156 -964 468 -87 123 -136 231 -174 382 l-22 89 -145 53 c-679 248
-1244 665 -1671 1232 -257 341 -468 762 -582 1160 -263 916 -165 1880 278
2709 181 340 357 576 640 860 182 181 291 275 466 399 508 360 1120 588 1725
645 61 5 126 12 145 14 79 9 513 -3 635 -18z"/>
<path d="M2580 5585 l0 -785 150 0 150 0 0 226 0 225 86 100 87 100 46 -64
c25 -36 129 -182 231 -325 l185 -261 183 -1 c100 0 182 2 182 5 0 2 -140 200
-310 440 -170 239 -310 438 -310 441 0 2 127 152 283 332 156 180 287 333 291
340 6 9 -31 12 -172 12 l-180 0 -298 -353 -299 -354 -3 354 -2 353 -150 0
-150 0 0 -785z"/>
<path d="M4442 5999 c-226 -30 -394 -183 -458 -419 -24 -88 -24 -290 0 -378
60 -221 211 -366 431 -413 33 -7 110 -12 170 -12 136 1 235 25 349 86 l81 43
3 127 3 127 -78 -39 c-343 -174 -624 -118 -681 137 l-10 42 409 0 409 0 0 95
c0 406 -258 654 -628 604z m155 -244 c35 -10 62 -27 86 -54 36 -40 77 -134 77
-176 l0 -25 -250 0 c-154 0 -250 4 -250 10 0 24 35 109 61 147 36 52 80 84
138 99 61 17 79 17 138 -1z"/>
<path d="M7186 5999 c-69 -11 -184 -70 -245 -125 -58 -52 -54 -55 -82 54 l-13
52 -138 0 -138 0 5 -22 c42 -174 45 -224 45 -695 l0 -463 150 0 150 0 0 409 0
409 53 40 c73 57 132 82 195 82 92 0 146 -36 179 -120 15 -39 17 -96 21 -432
l4 -388 150 0 150 0 -5 453 c-3 359 -7 460 -18 492 -54 150 -155 231 -314 255
-79 11 -81 11 -149 -1z"/>
<path d="M5200 5933 c10 -27 117 -301 238 -610 l220 -561 -94 -238 c-52 -131
-94 -240 -94 -241 0 -2 64 -2 141 -1 l141 3 329 829 c181 456 331 838 335 848
5 17 -4 18 -143 18 l-148 0 -155 -429 c-85 -237 -158 -427 -161 -423 -3 4 -77
197 -165 429 l-159 423 -152 0 -151 0 18 -47z"/>
</g>
</svg>
