<?xml version="1.0" encoding="UTF-8"?>
<svg width="36px" height="36px" viewBox="0 0 36 36" version="1.1" xmlns="http://www.w3.org/2000/svg" xmlns:xlink="http://www.w3.org/1999/xlink">
    <!-- Generator: Sketch 59.1 (86144) - https://sketch.com -->
    <title>edge</title>
    <desc>Created with Sketch.</desc>
    <defs>
        <linearGradient x1="-7.97051215e-15%" y1="50.0129955%" x2="100.026435%" y2="50.0129955%" id="linearGradient-1">
            <stop stop-color="#0C59A4" offset="0%"></stop>
            <stop stop-color="#114A8B" offset="100%"></stop>
        </linearGradient>
        <radialGradient cx="55.2461807%" cy="50.9262508%" fx="55.2461807%" fy="50.9262508%" r="61.9753086%" gradientTransform="translate(0.552462,0.509263),scale(0.863187,1.000000),translate(-0.552462,-0.509263)" id="radialGradient-2">
            <stop stop-color="#000000" stop-opacity="0" offset="72%"></stop>
            <stop stop-color="#000000" stop-opacity="0.53" offset="95%"></stop>
            <stop stop-color="#000000" offset="100%"></stop>
        </radialGradient>
        <linearGradient x1="76.6569725%" y1="24.7942842%" x2="33.2379941%" y2="83.1510351%" id="linearGradient-3">
            <stop stop-color="#1B9DE2" offset="0%"></stop>
            <stop stop-color="#1595DF" offset="16%"></stop>
            <stop stop-color="#0680D7" offset="67%"></stop>
            <stop stop-color="#0078D4" offset="100%"></stop>
        </linearGradient>
        <radialGradient cx="41.8348485%" cy="72.5639478%" fx="41.8348485%" fy="72.5639478%" r="85.1217566%" gradientTransform="translate(0.418348,0.725639),scale(1.000000,0.810421),rotate(-81.384352),translate(-0.418348,-0.725639)" id="radialGradient-4">
            <stop stop-color="#000000" stop-opacity="0" offset="76%"></stop>
            <stop stop-color="#000000" stop-opacity="0.5" offset="95%"></stop>
            <stop stop-color="#000000" offset="100%"></stop>
        </radialGradient>
        <radialGradient cx="10.1019077%" cy="27.7890034%" fx="10.1019077%" fy="27.7890034%" r="118.830871%" gradientTransform="translate(0.101019,0.277890),scale(0.665925,1.000000),rotate(92.290610),translate(-0.101019,-0.277890)" id="radialGradient-5">
            <stop stop-color="#35C1F1" offset="0%"></stop>
            <stop stop-color="#34C1ED" offset="11%"></stop>
            <stop stop-color="#2FC2DF" offset="23%"></stop>
            <stop stop-color="#2BC3D2" offset="31%"></stop>
            <stop stop-color="#36C752" offset="67%"></stop>
        </radialGradient>
        <radialGradient cx="93.7723426%" cy="45.4027789%" fx="93.7723426%" fy="45.4027789%" r="57.0950674%" gradientTransform="translate(0.937723,0.454028),scale(0.665925,1.000000),rotate(73.739795),translate(-0.937723,-0.454028)" id="radialGradient-6">
            <stop stop-color="#66EB6E" offset="0%"></stop>
            <stop stop-color="#66EB6E" stop-opacity="0" offset="100%"></stop>
        </radialGradient>
    </defs>
    <g id="App" stroke="none" stroke-width="1" fill="none" fill-rule="evenodd">
        <g id="Browser-icons" transform="translate(-119.000000, -18.000000)" fill-rule="nonzero">
            <g id="edge" transform="translate(119.000000, 18.000000)">
                <path d="M32.5050584,26.690428 C32.0269423,26.940478 31.5338672,27.160818 31.0286381,27.3501946 C29.4204687,27.9519264 27.7168996,28.2584739 25.9998444,28.2550973 C19.3713619,28.2550973 13.5973541,23.6955642 13.5973541,17.8445136 C13.6146334,16.2465085 14.495147,14.7829159 15.8988327,14.0189883 C9.90350195,14.2711284 8.36264591,20.5185992 8.36264591,24.1788327 C8.36264591,34.5277821 17.9005447,35.576965 19.9554864,35.576965 C21.0635019,35.576965 22.7346304,35.254786 23.7375875,34.9382101 L23.9210895,34.8765759 C27.7805755,33.5423217 31.0708127,30.9338453 33.2502724,27.4804669 C33.3875962,27.2641073 33.3606355,26.9821557 33.1847976,26.7957411 C33.0089598,26.6093266 32.7290616,26.5659615 32.5050584,26.690428 Z" id="Path" fill="url(#linearGradient-1)"></path>
                <path d="M32.5050584,26.690428 C32.0269423,26.940478 31.5338672,27.160818 31.0286381,27.3501946 C29.4204687,27.9519264 27.7168996,28.2584739 25.9998444,28.2550973 C19.3713619,28.2550973 13.5973541,23.6955642 13.5973541,17.8445136 C13.6146334,16.2465085 14.495147,14.7829159 15.8988327,14.0189883 C9.90350195,14.2711284 8.36264591,20.5185992 8.36264591,24.1788327 C8.36264591,34.5277821 17.9005447,35.576965 19.9554864,35.576965 C21.0635019,35.576965 22.7346304,35.254786 23.7375875,34.9382101 L23.9210895,34.8765759 C27.7805755,33.5423217 31.0708127,30.9338453 33.2502724,27.4804669 C33.3875962,27.2641073 33.3606355,26.9821557 33.1847976,26.7957411 C33.0089598,26.6093266 32.7290616,26.5659615 32.5050584,26.690428 Z" id="Path" fill="url(#radialGradient-2)" opacity="0.35"></path>
                <path d="M14.9477043,33.8175875 C13.6982987,33.0421199 12.6155227,32.0260056 11.7623346,30.8283268 C9.79389677,28.1314353 9.11803059,24.7024444 9.91586565,21.4603107 C10.7137007,18.218177 12.9036563,15.4944171 15.8988327,14.0189883 C16.3358755,13.8130739 17.0824903,13.4404669 18.075642,13.458677 C19.494071,13.4690045 20.8258297,14.142919 21.6742412,15.2796887 C22.2399079,16.0349647 22.5517897,16.9500143 22.5651362,17.8935409 C22.5651362,17.8641245 25.9914397,6.7433463 11.3589105,6.7433463 C5.20949416,6.7433463 0.152684825,12.5789883 0.152684825,17.6988327 C0.128428851,20.4071624 0.70791595,23.0868716 1.84902724,25.5431907 C5.70924262,33.7795069 15.1251497,37.8203147 23.7543969,34.9438132 C20.8002922,35.8752249 17.5864255,35.4656847 14.9603113,33.8231907 L14.9477043,33.8175875 Z" id="Path" fill="url(#linearGradient-3)"></path>
                <path d="M14.9477043,33.8175875 C13.6982987,33.0421199 12.6155227,32.0260056 11.7623346,30.8283268 C9.79389677,28.1314353 9.11803059,24.7024444 9.91586565,21.4603107 C10.7137007,18.218177 12.9036563,15.4944171 15.8988327,14.0189883 C16.3358755,13.8130739 17.0824903,13.4404669 18.075642,13.458677 C19.494071,13.4690045 20.8258297,14.142919 21.6742412,15.2796887 C22.2399079,16.0349647 22.5517897,16.9500143 22.5651362,17.8935409 C22.5651362,17.8641245 25.9914397,6.7433463 11.3589105,6.7433463 C5.20949416,6.7433463 0.152684825,12.5789883 0.152684825,17.6988327 C0.128428851,20.4071624 0.70791595,23.0868716 1.84902724,25.5431907 C5.70924262,33.7795069 15.1251497,37.8203147 23.7543969,34.9438132 C20.8002922,35.8752249 17.5864255,35.4656847 14.9603113,33.8231907 L14.9477043,33.8175875 Z" id="Path" fill="url(#radialGradient-4)" opacity="0.41"></path>
                <path d="M21.4753307,20.8519844 C21.3618677,20.9990661 21.0130739,21.202179 21.0130739,21.6448249 C21.0130739,22.010428 21.2512062,22.3620233 21.6742412,22.6575875 C23.6885603,24.0583658 27.48607,23.873463 27.4958755,23.873463 C28.9884408,23.8698809 30.4527162,23.4659595 31.7360311,22.7038132 C34.3702904,21.1656786 35.9923496,18.3469309 35.9985992,15.2964981 C36.0350195,12.1573541 34.8779767,10.0701946 34.4101167,9.14568093 C31.4418677,3.33945525 25.0347082,0 18.0672374,0 C8.2624302,-0.000969516722 0.275156318,7.87398332 0.137276265,17.677821 C0.204513619,12.5593774 5.29214008,8.42568093 11.3435019,8.42568093 C11.8337743,8.42568093 14.6297276,8.47330739 17.2267704,9.83626459 C19.515642,11.0381323 20.7147082,12.4893385 21.5481712,13.9279377 C22.4138521,15.4225681 22.5679377,17.3108171 22.5679377,18.063035 C22.5679377,18.8152529 22.1841245,19.9302724 21.4753307,20.8519844 Z" id="Path" fill="url(#radialGradient-5)"></path>
                <path d="M21.4753307,20.8519844 C21.3618677,20.9990661 21.0130739,21.202179 21.0130739,21.6448249 C21.0130739,22.010428 21.2512062,22.3620233 21.6742412,22.6575875 C23.6885603,24.0583658 27.48607,23.873463 27.4958755,23.873463 C28.9884408,23.8698809 30.4527162,23.4659595 31.7360311,22.7038132 C34.3702904,21.1656786 35.9923496,18.3469309 35.9985992,15.2964981 C36.0350195,12.1573541 34.8779767,10.0701946 34.4101167,9.14568093 C31.4418677,3.33945525 25.0347082,0 18.0672374,0 C8.2624302,-0.000969516722 0.275156318,7.87398332 0.137276265,17.677821 C0.204513619,12.5593774 5.29214008,8.42568093 11.3435019,8.42568093 C11.8337743,8.42568093 14.6297276,8.47330739 17.2267704,9.83626459 C19.515642,11.0381323 20.7147082,12.4893385 21.5481712,13.9279377 C22.4138521,15.4225681 22.5679377,17.3108171 22.5679377,18.063035 C22.5679377,18.8152529 22.1841245,19.9302724 21.4753307,20.8519844 Z" id="Path" fill="url(#radialGradient-6)"></path>
            </g>
        </g>
    </g>
</svg>