<?xml version="1.0" encoding="UTF-8"?>
<svg width="104px" height="115px" viewBox="0 0 104 115" version="1.1" xmlns="http://www.w3.org/2000/svg" xmlns:xlink="http://www.w3.org/1999/xlink">
    <!-- Generator: Sketch 54.1 (76490) - https://sketchapp.com -->
    <title>fingerprint</title>
    <desc>Created with Sketch.</desc>
    <g id="Website" stroke="none" stroke-width="1" fill="none" fill-rule="evenodd">
        <g id="Keyn-web-w/-why-block" transform="translate(-226.000000, -2921.000000)" fill="#4722C3" fill-rule="nonzero">
            <g id="fingerprint" transform="translate(226.000000, 2921.000000)">
                <g id="baseline-fingerprint-24px">
                    <path d="M85.9593006,14.1037736 C85.4987765,14.1037736 85.0382524,13.989573 84.6352938,13.7611718 C73.5827155,8.1082423 64.0268406,5.71002979 52.5713037,5.71002979 C41.1733324,5.71002979 30.3510162,8.39374379 20.5073137,13.7611718 C19.1257414,14.5034757 17.3987761,13.989573 16.5928589,12.6191658 C15.8445072,11.2487587 16.3625968,9.47864945 17.7441691,8.73634558 C28.4513543,2.96921549 40.1947187,0 52.5713037,0 C64.8327578,0 75.5399429,2.683714 87.2833073,8.67924528 C88.7224451,9.42154916 89.2405347,11.1345581 88.4921831,12.5049652 C87.9740935,13.5327706 86.9954798,14.1037736 85.9593006,14.1037736 L85.9593006,14.1037736 Z M2.90773444,44.4811321 C2.32983843,44.4811321 1.75194243,44.3085338 1.23183603,43.9633373 C-0.0973247833,43.0428133 -0.386272785,41.2592981 0.538360821,39.9360448 C6.25953126,31.8814599 13.5410209,25.5528574 22.209461,21.1228357 C40.3553955,11.8025302 63.5868149,11.7449974 81.790539,21.0653029 C90.4589791,25.4953246 97.7404687,31.7663944 103.461639,39.7634466 C104.386273,41.0291671 104.097325,42.8702151 102.768164,43.7907391 C101.439003,44.7112631 99.6475256,44.4235993 98.7228919,43.1003461 C93.5218279,35.8512196 86.9338135,30.1554774 79.1322174,26.1857176 C62.5466021,17.7284034 41.3378187,17.7284034 24.809993,26.2432504 C16.9506073,30.2705429 10.3625929,36.0238179 5.16152886,43.2729443 C4.69921205,44.0784028 3.83236805,44.4811321 2.90773444,44.4811321 L2.90773444,44.4811321 Z M39.0803887,113.915094 C38.3339223,113.915094 37.5874558,113.629137 37.0706714,113.057222 C32.0750883,108.08156 29.3763251,104.878835 25.5291519,97.9586624 C21.5671378,90.9241063 19.5,82.3453795 19.5,73.137546 C19.5,56.1516668 34.0848057,42.3113208 52,42.3113208 C69.9151943,42.3113208 84.5,56.1516668 84.5,73.137546 C84.5,74.7389083 83.2367491,75.9971216 81.6289753,75.9971216 C80.0212014,75.9971216 78.7579505,74.7389083 78.7579505,73.137546 C78.7579505,59.2972 66.7570671,48.030472 52,48.030472 C37.2429329,48.030472 25.2420495,59.2972 25.2420495,73.137546 C25.2420495,81.3731238 27.0795053,88.9795949 30.5821555,95.1562783 C34.2570671,101.733302 36.7835689,104.535686 41.204947,108.996624 C42.2959364,110.140455 42.2959364,111.913391 41.204947,113.057222 C40.5733216,113.629137 39.8268551,113.915094 39.0803887,113.915094 Z M80.4864864,103.066038 C73.5948041,103.066038 67.513908,101.320428 62.5333645,97.8873964 C53.9042834,92.0105112 48.75,82.4678462 48.75,72.3433114 C48.75,70.7140759 50.0240925,69.4339623 51.6456648,69.4339623 C53.2672371,69.4339623 54.5413296,70.7140759 54.5413296,72.3433114 C54.5413296,80.5476758 58.711087,88.2865444 65.7765091,93.0578769 C69.8883532,95.850852 74.6951568,97.1891526 80.4864864,97.1891526 C81.8764055,97.1891526 84.1929374,97.0145916 86.5094692,96.6072828 C88.0731282,96.3163478 89.5788739,97.3637135 89.8684404,98.992949 C90.1580069,100.563998 89.1155675,102.076859 87.4939952,102.367794 C84.1929374,103.007851 81.2972725,103.066038 80.4864864,103.066038 L80.4864864,103.066038 Z M68.9326845,115 C68.7007299,115 68.4107867,114.942824 68.1788321,114.885649 C58.9586375,112.369926 52.9278183,108.996569 46.607056,102.878788 C38.4886456,94.9313894 34.0235199,84.3539165 34.0235199,73.0331618 C34.0235199,63.7707261 42.025953,56.2235563 51.8840227,56.2235563 C61.7420925,56.2235563 69.7445255,63.7707261 69.7445255,73.0331618 C69.7445255,79.1509434 75.1374696,84.1252144 81.8061638,84.1252144 C88.4748581,84.1252144 93.8678021,79.1509434 93.8678021,73.0331618 C93.8678021,51.4779874 75.0214923,33.9822756 51.8260341,33.9822756 C35.3572587,33.9822756 20.2802109,43.0160091 13.4955393,57.0240137 C11.2339822,61.6552316 10.0742092,67.0869068 10.0742092,73.0331618 C10.0742092,77.4928531 10.4801298,84.5254431 13.9594485,93.6735277 C14.539335,95.1600915 13.7854826,96.8181818 12.2777778,97.3327616 C10.770073,97.9045169 9.08840227,97.1040595 8.56650446,95.6746712 C5.72506083,88.184677 4.33333333,80.7518582 4.33333333,73.0331618 C4.33333333,66.1720983 5.66707218,59.9399657 8.27656123,54.5082905 C15.9890511,38.5563179 33.0957015,28.2075472 51.8260341,28.2075472 C78.2108678,28.2075472 99.6666667,48.2761578 99.6666667,72.9759863 C99.6666667,82.238422 91.6642336,89.7855918 81.8061638,89.7855918 C71.9480941,89.7855918 63.945661,82.238422 63.945661,72.9759863 C63.945661,66.8582047 58.552717,61.8839337 51.8840227,61.8839337 C45.2153285,61.8839337 39.8223844,66.8582047 39.8223844,72.9759863 C39.8223844,82.7530017 43.649635,91.9010863 50.6662612,98.7621498 C56.1751825,104.13665 61.4521492,107.109777 69.6285483,109.339623 C71.1942417,109.739851 72.0640714,111.340766 71.6581509,112.82733 C71.3682076,114.142367 70.1504461,115 68.9326845,115 L68.9326845,115 Z" id="Shape"></path>
                </g>
            </g>
        </g>
    </g>
</svg>