<?xml version="1.0" encoding="UTF-8"?>
<svg width="145px" height="145px" viewBox="0 0 145 145" version="1.1" xmlns="http://www.w3.org/2000/svg" xmlns:xlink="http://www.w3.org/1999/xlink">
    <!-- Generator: Sketch 59.1 (86144) - https://sketch.com -->
    <title>price</title>
    <desc>Created with Sketch.</desc>
    <g id="Website" stroke="none" stroke-width="1" fill="none" fill-rule="evenodd">
        <g id="Keyn-web-w/-why-block" transform="translate(-1089.000000, -3063.000000)">
            <g id="price" transform="translate(1094.000000, 3068.000000)">
                <circle id="Oval" stroke="#120050" stroke-width="10" fill="#E5E1F5" cx="67.5" cy="67.5" r="67.5"></circle>
                <path d="M52.054615,78.1381215 C55.5336056,78.1381215 58.4658537,76.7624447 60.8514473,74.0110497 L65.9705079,78.7845304 C64.3138457,80.8066399 62.2678986,82.348061 59.8326051,83.4088398 C57.3973117,84.4696186 54.6721432,85 51.657018,85 C48.7744258,85 46.0989565,84.486193 43.6305298,83.4585635 C41.1621031,82.4309341 39.0664568,80.9723851 37.3435281,79.0828729 C35.6205994,77.1933607 34.3781214,75.0055373 33.6160568,72.519337 L28,72.519337 L28,68.3425414 L32.8705625,68.3425414 C32.8374293,68.0441974 32.8208629,67.5966881 32.8208629,67 C32.8208629,66.4033119 32.8374293,65.9558026 32.8705625,65.6574586 L28,65.6574586 L28,61.480663 L33.6160568,61.480663 C34.3781214,58.9944627 35.6205994,56.8066393 37.3435281,54.9171271 C39.0664568,53.0276149 41.1621031,51.5690659 43.6305298,50.5414365 C46.0989565,49.513807 48.7744258,49 51.657018,49 C54.6721432,49 57.3973117,49.5303814 59.8326051,50.5911602 C62.2678986,51.651939 64.3138457,53.1767856 65.9705079,55.1657459 L60.8514473,59.9392265 C58.4327205,57.2209809 55.5004724,55.8618785 52.054615,55.8618785 C49.8678209,55.8618785 47.9129888,56.359111 46.1900601,57.3535912 C44.4671314,58.3480713 43.1418215,59.7237481 42.2140907,61.480663 L54.7880939,61.480663 L54.7880939,65.6574586 L40.9716002,65.6574586 C40.938467,65.9558026 40.9219006,66.4033119 40.9219006,67 C40.9219006,67.5966881 40.938467,68.0441974 40.9716002,68.3425414 L54.7880939,68.3425414 L54.7880939,72.519337 L42.2140907,72.519337 C43.1418215,74.2762519 44.4671314,75.6519287 46.1900601,76.6464088 C47.9129888,77.640889 49.8678209,78.1381215 52.054615,78.1381215 Z M85.9098853,84 C83.0272931,84 80.4595052,83.2872999 78.2064446,81.8618785 C75.953384,80.436457 74.1890652,78.3729417 72.9134353,75.6712707 C71.6378054,72.9695998 71,69.7458751 71,66 C71,62.2541249 71.6378054,59.0304002 72.9134353,56.3287293 C74.1890652,53.6270583 75.953384,51.563543 78.2064446,50.1381215 C80.4595052,48.7127001 83.0272931,48 85.9098853,48 C88.7924775,48 91.3602655,48.7127001 93.6133261,50.1381215 C95.8663867,51.563543 97.6307054,53.6270583 98.9063353,56.3287293 C100.181965,59.0304002 100.819771,62.2541249 100.819771,66 C100.819771,69.7458751 100.181965,72.9695998 98.9063353,75.6712707 C97.6307054,78.3729417 95.8663867,80.436457 93.6133261,81.8618785 C91.3602655,83.2872999 88.7924775,84 85.9098853,84 Z M85.9098853,77.1878453 C88.0304129,77.1878453 89.6953335,76.2762522 90.9046969,74.4530387 C92.1140603,72.6298251 92.7187329,69.8121738 92.7187329,66 C92.7187329,62.1878262 92.1140603,59.3701749 90.9046969,57.5469613 C89.6953335,55.7237478 88.0304129,54.8121547 85.9098853,54.8121547 C83.8224909,54.8121547 82.1741368,55.7237478 80.9647733,57.5469613 C79.7554099,59.3701749 79.1507373,62.1878262 79.1507373,66 C79.1507373,69.8121738 79.7554099,72.6298251 80.9647733,74.4530387 C82.1741368,76.2762522 83.8224909,77.1878453 85.9098853,77.1878453 Z" id="€10" fill="#4722C3" fill-rule="nonzero"></path>
            </g>
        </g>
    </g>
</svg>