<?xml version="1.0" encoding="UTF-8"?>
<svg width="108px" height="120px" viewBox="0 0 108 120" version="1.1" xmlns="http://www.w3.org/2000/svg" xmlns:xlink="http://www.w3.org/1999/xlink">
    <!-- Generator: Sketch 50.2 (55047) - http://www.bohemiancoding.com/sketch -->
    <title>Icon-print</title>
    <desc>Created with Sketch.</desc>
    <defs></defs>
    <g id="Website" stroke="none" stroke-width="1" fill="none" fill-rule="evenodd">
        <g id="Onepager-A" transform="translate(-826.000000, -1984.000000)" fill="#FFB72F" fill-rule="nonzero">
            <g id="How" transform="translate(0.000000, 1598.000000)">
                <g id="3" transform="translate(750.000000, 386.000000)">
                    <path d="M164.806518,14.9727273 C164.326854,14.9727273 163.84719,14.8514906 163.427484,14.6090173 C151.915545,8.60780272 141.962514,6.0618329 130.030869,6.0618329 C118.159182,6.0618329 106.887075,8.91089437 96.6342537,14.6090173 C95.1952613,15.3970556 93.3965208,14.8514906 92.5571086,13.3966507 C91.7776544,11.9418108 92.3172765,10.0626426 93.7562689,9.27460434 C104.90846,3.15215311 117.139895,0 130.030869,0 C142.801926,0 153.954117,2.84906146 166.185553,9.21398601 C167.684503,10.0020243 168.224125,11.8205742 167.444671,13.2754141 C166.905049,14.366544 165.885763,14.9727273 164.806518,14.9727273 Z M79.0195704,47.0571429 C78.4194476,47.0571429 77.8193248,46.8748454 77.2792143,46.5102506 C75.898932,45.5379977 75.5988706,43.6542578 76.559067,42.2566442 C82.5002825,33.7494315 90.0618294,27.0651929 99.063671,22.3862259 C117.907526,12.5421654 142.032462,12.4813996 160.936329,22.3254601 C169.938171,27.0044271 177.499718,33.6278999 183.440933,42.0743468 C184.401129,43.4111945 184.101068,45.3557003 182.720786,46.3279532 C181.340503,47.3002061 179.480123,46.9963771 178.519926,45.5987635 C173.118821,37.942272 166.277422,31.9264573 158.175764,27.7336167 C140.952241,18.8010433 118.927735,18.8010433 101.764223,27.7943825 C93.6025538,32.0479889 86.7611542,38.1245695 81.3600492,45.7810609 C80.879951,46.6317822 79.9797668,47.0571429 79.0195704,47.0571429 Z M117.016148,118.712338 C116.23477,118.712338 115.453392,118.413361 114.912438,117.815409 C109.683216,112.613224 106.858233,109.26469 102.831131,102.029467 C98.6838163,94.6746525 96.52,85.705367 96.52,76.0783339 C96.52,58.3191486 111.786926,43.8487013 130.54,43.8487013 C149.293074,43.8487013 164.56,58.3191486 164.56,76.0783339 C164.56,77.7526005 163.237668,79.0680957 161.5547,79.0680957 C159.871731,79.0680957 158.549399,77.7526005 158.549399,76.0783339 C158.549399,61.6078866 145.987244,49.828225 130.54,49.828225 C115.092756,49.828225 102.530601,61.6078866 102.530601,76.0783339 C102.530601,84.688848 104.453993,92.6416145 108.120459,99.0995 C111.967244,105.975952 114.611908,108.905919 119.240071,113.569947 C120.382085,114.765852 120.382085,116.619504 119.240071,117.815409 C118.578905,118.413361 117.797527,118.712338 117.016148,118.712338 Z M159.231437,106.948052 C152.180157,106.948052 145.958441,105.171752 140.862558,101.678362 C132.033646,95.6981531 126.76,85.987714 126.76,75.685175 C126.76,74.0272952 128.063598,72.7246753 129.722722,72.7246753 C131.381847,72.7246753 132.685445,74.0272952 132.685445,75.685175 C132.685445,84.0337842 136.951765,91.9087134 144.180807,96.763933 C148.387873,99.6060127 153.305992,100.967843 159.231437,100.967843 C160.653543,100.967843 163.023721,100.790213 165.393899,100.375743 C166.993769,100.079693 168.534385,101.145473 168.830657,102.803352 C169.126929,104.402022 168.060349,105.941482 166.401225,106.237532 C163.023721,106.888842 160.060999,106.948052 159.231437,106.948052 Z M146.916058,119.781818 C146.676934,119.781818 146.378029,119.721933 146.138905,119.662048 C136.633723,117.027096 130.416496,113.493865 123.900365,107.08614 C115.531022,98.7620874 110.927883,87.6833119 110.927883,75.8260279 C110.927883,66.1246137 119.177664,58.2197577 129.340438,58.2197577 C139.503212,58.2197577 147.752993,66.1246137 147.752993,75.8260279 C147.752993,82.2337521 153.312628,87.4437709 160.187445,87.4437709 C167.062263,87.4437709 172.621898,82.2337521 172.621898,75.8260279 C172.621898,53.2492801 153.193066,34.9243866 129.280657,34.9243866 C112.302847,34.9243866 96.759781,44.3862597 89.7654015,59.0581515 C87.4339416,63.9088586 86.2383212,69.5979596 86.2383212,75.8260279 C86.2383212,80.4970792 86.6567883,87.8629678 90.2436496,97.4446114 C90.8414599,99.0016285 90.0643066,100.738301 88.51,101.277269 C86.9556934,101.876122 85.2220438,101.037728 84.6840146,99.540596 C81.7547445,91.6956252 80.32,83.9105398 80.32,75.8260279 C80.32,68.6397952 81.6949635,62.1123004 84.3851095,56.4231995 C92.3359854,39.7152084 109.971387,28.875974 129.280657,28.875974 C156.481022,28.875974 178.6,49.8957048 178.6,75.7661427 C178.6,85.4675569 170.350219,93.3724129 160.187445,93.3724129 C150.024672,93.3724129 141.774891,85.4675569 141.774891,75.7661427 C141.774891,69.3584185 136.215255,64.1483997 129.340438,64.1483997 C122.46562,64.1483997 116.905985,69.3584185 116.905985,75.7661427 C116.905985,86.0065243 120.851533,95.588168 128.085036,102.774401 C133.764234,108.403616 139.204307,111.517651 147.633431,113.853176 C149.247518,114.272373 150.144234,115.949161 149.725766,117.506178 C149.426861,118.883539 148.17146,119.781818 146.916058,119.781818 Z" id="Icon-print"></path>
                </g>
            </g>
        </g>
    </g>
</svg>