<?xml version="1.0" encoding="UTF-8"?>
<svg width="90px" height="118px" viewBox="0 0 90 118" version="1.1" xmlns="http://www.w3.org/2000/svg" xmlns:xlink="http://www.w3.org/1999/xlink">
    <!-- Generator: Sketch 50.2 (55047) - http://www.bohemiancoding.com/sketch -->
    <title>Icon-lock</title>
    <desc>Created with Sketch.</desc>
    <defs></defs>
    <g id="Website" stroke="none" stroke-width="1" fill="none" fill-rule="evenodd">
        <g id="Onepager-A" transform="translate(-1155.000000, -1984.000000)" fill="#FFB72F" fill-rule="nonzero">
            <g id="How" transform="translate(0.000000, 1598.000000)">
                <g id="4" transform="translate(1070.000000, 386.000000)">
                    <path d="M122.732779,90.6670138 C123.069645,94.3845831 126.194672,97.2972973 130,97.2972973 C133.805328,97.2972973 136.930355,94.3845831 137.267221,90.6670138 C142.342794,88.0355222 145.810811,82.7335712 145.810811,76.6216216 C145.810811,67.8895519 138.73207,60.8108108 130,60.8108108 C121.26793,60.8108108 114.189189,67.8895519 114.189189,76.6216216 C114.189189,82.7335712 117.657206,88.0355222 122.732779,90.6670138 Z M163.75,39.3243243 C169.9375,39.3243243 175,44.3803089 175,50.5598456 L175,106.737452 C175,112.916988 169.9375,117.972973 163.75,117.972973 L96.25,117.972973 C90.0625,117.972973 85,112.916988 85,106.737452 L85,50.5598456 C85,44.3803089 90.0625,39.3243243 96.25,39.3243243 L147.4375,39.3243243 L147.4375,28.0888031 C147.4375,18.4824324 139.61875,10.6737452 130,10.6737452 C120.38125,10.6737452 112.5625,18.4824324 112.5625,28.0888031 L101.875,28.0888031 C101.875,12.5837838 114.475,0 130,0 C145.525,0 158.125,12.5837838 158.125,28.0888031 L158.125,39.3243243 L163.75,39.3243243 Z" id="Icon-lock"></path>
                </g>
            </g>
        </g>
    </g>
</svg>