<?xml version="1.0" encoding="UTF-8"?>
<svg width="461px" height="295px" viewBox="0 0 461 295" version="1.1" xmlns="http://www.w3.org/2000/svg" xmlns:xlink="http://www.w3.org/1999/xlink">
    <!-- Generator: Sketch 50.2 (55047) - http://www.bohemiancoding.com/sketch -->
    <title>Icon-browser-big</title>
    <desc>Created with Sketch.</desc>
    <defs></defs>
    <g id="Website" stroke="none" stroke-width="1" fill="none" fill-rule="evenodd">
        <g id="Onepager-A" transform="translate(-130.000000, -1091.000000)" fill="#FFB72F">
            <g id="Why" transform="translate(0.000000, 789.000000)">
                <g id="Gif-cracked" transform="translate(130.000000, 302.000000)">
                    <path d="M4,0 L457,0 C459.209139,-4.05812251e-16 461,1.790861 461,4 L461,291 C461,293.209139 459.209139,295 457,295 L4,295 C1.790861,295 3.16642949e-14,293.209139 0,291 L0,4 C-2.705415e-16,1.790861 1.790861,4.05812251e-16 4,0 Z M4,12 L4,289 L456,289 L456,12 L4,12 Z M7,8 C8.1045695,8 9,7.1045695 9,6 C9,4.8954305 8.1045695,4 7,4 C5.8954305,4 5,4.8954305 5,6 C5,7.1045695 5.8954305,8 7,8 Z M13,8 C14.1045695,8 15,7.1045695 15,6 C15,4.8954305 14.1045695,4 13,4 C11.8954305,4 11,4.8954305 11,6 C11,7.1045695 11.8954305,8 13,8 Z M19,8 C20.1045695,8 21,7.1045695 21,6 C21,4.8954305 20.1045695,4 19,4 C17.8954305,4 17,4.8954305 17,6 C17,7.1045695 17.8954305,8 19,8 Z" id="Icon-browser-big"></path>
                </g>
            </g>
        </g>
    </g>
</svg>