<?xml version="1.0" encoding="UTF-8"?>
<svg width="41px" height="20px" viewBox="0 0 41 20" version="1.1" xmlns="http://www.w3.org/2000/svg" xmlns:xlink="http://www.w3.org/1999/xlink">
    <!-- Generator: Sketch 59.1 (86144) - https://sketch.com -->
    <title>∞</title>
    <desc>Created with Sketch.</desc>
    <g id="Website-improved" stroke="none" stroke-width="1" fill="none" fill-rule="evenodd">
        <g id="Keyn-website-2.0" transform="translate(-155.000000, -3184.000000)" fill="#EE8C00" fill-rule="nonzero">
            <path d="M185.736,3184.744 C187.528009,3184.744 189.151993,3185.152 190.608,3185.968 C192.064007,3186.784 193.207996,3187.90399 194.04,3189.328 C194.872004,3190.75201 195.288,3192.35999 195.288,3194.152 C195.288,3195.94401 194.872004,3197.56799 194.04,3199.024 C193.207996,3200.48001 192.064007,3201.616 190.608,3202.432 C189.151993,3203.248 187.528009,3203.656 185.736,3203.656 C183.175987,3203.656 181.104008,3203.10401 179.52,3202 C177.935992,3200.89599 176.488007,3199.35201 175.176,3197.368 C173.895994,3199.35201 172.456008,3200.89599 170.856,3202 C169.255992,3203.10401 167.176013,3203.656 164.616,3203.656 C162.823991,3203.656 161.192007,3203.248 159.72,3202.432 C158.247993,3201.616 157.096004,3200.48801 156.264,3199.048 C155.431996,3197.60799 155.016,3195.99201 155.016,3194.2 C155.016,3192.40799 155.431996,3190.79201 156.264,3189.352 C157.096004,3187.91199 158.247993,3186.784 159.72,3185.968 C161.192007,3185.152 162.823991,3184.744 164.616,3184.744 C167.176013,3184.744 169.255992,3185.29599 170.856,3186.4 C172.456008,3187.50401 173.895994,3189.04799 175.176,3191.032 C176.488007,3189.04799 177.935992,3187.50401 179.52,3186.4 C181.104008,3185.29599 183.175987,3184.744 185.736,3184.744 Z M185.448,3188.344 C183.52799,3188.344 181.968006,3188.84 180.768,3189.832 C179.567994,3190.824 178.360006,3192.27999 177.144,3194.2 C178.360006,3196.12001 179.567994,3197.576 180.768,3198.568 C181.968006,3199.56 183.52799,3200.056 185.448,3200.056 C187.208009,3200.056 188.663994,3199.49601 189.816,3198.376 C190.968006,3197.25599 191.544,3195.84801 191.544,3194.152 C191.544,3192.48799 190.968006,3191.10401 189.816,3190 C188.663994,3188.89599 187.208009,3188.344 185.448,3188.344 Z M164.904,3200.056 C166.82401,3200.056 168.383994,3199.56 169.584,3198.568 C170.784006,3197.576 171.991994,3196.12001 173.208,3194.2 C171.991994,3192.27999 170.784006,3190.824 169.584,3189.832 C168.383994,3188.84 166.82401,3188.344 164.904,3188.344 C163.143991,3188.344 161.680006,3188.89599 160.512,3190 C159.343994,3191.10401 158.76,3192.50399 158.76,3194.2 C158.76,3195.89601 159.343994,3197.29599 160.512,3198.4 C161.680006,3199.50401 163.143991,3200.056 164.904,3200.056 Z" id="∞"></path>
        </g>
    </g>
</svg>