<?xml version="1.0" encoding="UTF-8"?>
<svg width="1482px" height="970px" viewBox="0 0 1482 970" version="1.1" xmlns="http://www.w3.org/2000/svg" xmlns:xlink="http://www.w3.org/1999/xlink">
    <!-- Generator: Sketch 59.1 (86144) - https://sketch.com -->
    <title>Keyn_Great_visual</title>
    <desc>Created with Sketch.</desc>
    <defs>
        <linearGradient x1="8.77877725%" y1="76.7462889%" x2="91.2212228%" y2="23.2535535%" id="linearGradient-1">
            <stop stop-color="#FFFFFF" offset="55.02%"></stop>
            <stop stop-color="#E5E1F5" offset="100%"></stop>
        </linearGradient>
        <linearGradient x1="0.00682439176%" y1="49.9891237%" x2="100.073972%" y2="49.9891237%" id="linearGradient-2">
            <stop stop-color="#F4BA68" offset="0%"></stop>
            <stop stop-color="#EF981E" offset="100%"></stop>
        </linearGradient>
        <linearGradient x1="-0.036097631%" y1="49.9966901%" x2="100.009595%" y2="49.9966901%" id="linearGradient-3">
            <stop stop-color="#F4BA68" offset="0%"></stop>
            <stop stop-color="#EF981E" offset="100%"></stop>
        </linearGradient>
        <linearGradient x1="-0.00173982384%" y1="50.0007451%" x2="99.997354%" y2="50.0007451%" id="linearGradient-4">
            <stop stop-color="#39347D" offset="0%"></stop>
            <stop stop-color="#161066" offset="99.79%"></stop>
        </linearGradient>
        <linearGradient x1="-0.000122114825%" y1="49.9987728%" x2="100.000441%" y2="49.9987728%" id="linearGradient-5">
            <stop stop-color="#F0EEF9" offset="0%"></stop>
            <stop stop-color="#E5E1F5" offset="100%"></stop>
        </linearGradient>
        <linearGradient x1="0.000279827326%" y1="50.0008205%" x2="99.9957356%" y2="50.0008205%" id="linearGradient-6">
            <stop stop-color="#FBCFA0" offset="0%"></stop>
            <stop stop-color="#F9B973" offset="100%"></stop>
        </linearGradient>
        <linearGradient x1="0.00204202555%" y1="50.0080008%" x2="99.9988726%" y2="50.0080008%" id="linearGradient-7">
            <stop stop-color="#7357D1" offset="0%"></stop>
            <stop stop-color="#4722C3" offset="100%"></stop>
        </linearGradient>
        <linearGradient x1="-0.000879483953%" y1="50.0018598%" x2="99.998885%" y2="50.0018598%" id="linearGradient-8">
            <stop stop-color="#CEC8FB" offset="0%"></stop>
            <stop stop-color="#8576F4" offset="100%"></stop>
        </linearGradient>
        <linearGradient x1="0.00287253043%" y1="49.997079%" x2="100.001378%" y2="49.997079%" id="linearGradient-9">
            <stop stop-color="#39347D" offset="0%"></stop>
            <stop stop-color="#161066" offset="99.79%"></stop>
        </linearGradient>
        <linearGradient x1="0.00430568428%" y1="50.0030078%" x2="100.001645%" y2="50.0030078%" id="linearGradient-10">
            <stop stop-color="#FBCFA0" offset="0%"></stop>
            <stop stop-color="#F9B973" offset="100%"></stop>
        </linearGradient>
        <linearGradient x1="0.00148926851%" y1="50.002824%" x2="100.001007%" y2="50.002824%" id="linearGradient-11">
            <stop stop-color="#7357D1" offset="0%"></stop>
            <stop stop-color="#4722C3" offset="100%"></stop>
        </linearGradient>
        <linearGradient x1="0.00141791016%" y1="50.003352%" x2="100.00032%" y2="50.003352%" id="linearGradient-12">
            <stop stop-color="#D6D4EA" offset="0%"></stop>
            <stop stop-color="#C5C3E2" offset="100%"></stop>
        </linearGradient>
        <linearGradient x1="7.19010641e-05%" y1="50.0006471%" x2="99.994176%" y2="50.0006471%" id="linearGradient-13">
            <stop stop-color="#FBCFA0" offset="0%"></stop>
            <stop stop-color="#F9B973" offset="100%"></stop>
        </linearGradient>
        <linearGradient x1="-0.00170756388%" y1="50.0009486%" x2="100.000443%" y2="50.0009486%" id="linearGradient-14">
            <stop stop-color="#FBCFA0" offset="0%"></stop>
            <stop stop-color="#F9B973" offset="100%"></stop>
        </linearGradient>
        <linearGradient x1="-0.00143185069%" y1="49.9981442%" x2="99.9983968%" y2="49.9981442%" id="linearGradient-15">
            <stop stop-color="#D6D4EA" offset="0%"></stop>
            <stop stop-color="#C5C3E2" offset="100%"></stop>
        </linearGradient>
        <linearGradient x1="0.00346055496%" y1="50.0039234%" x2="100.00284%" y2="50.0039234%" id="linearGradient-16">
            <stop stop-color="#CEC8FB" offset="0%"></stop>
            <stop stop-color="#8576F4" offset="100%"></stop>
        </linearGradient>
        <linearGradient x1="0.00326959983%" y1="50.0031022%" x2="100.002061%" y2="50.0031022%" id="linearGradient-17">
            <stop stop-color="#F4BA68" offset="0%"></stop>
            <stop stop-color="#EF981E" offset="100%"></stop>
        </linearGradient>
        <linearGradient x1="0.000156651745%" y1="50.0013258%" x2="99.9985178%" y2="50.0013258%" id="linearGradient-18">
            <stop stop-color="#7357D1" offset="0%"></stop>
            <stop stop-color="#4722C3" offset="100%"></stop>
        </linearGradient>
        <linearGradient x1="-0.00148687869%" y1="49.9923124%" x2="99.9999538%" y2="49.9923124%" id="linearGradient-19">
            <stop stop-color="#39347D" offset="0%"></stop>
            <stop stop-color="#161066" offset="99.79%"></stop>
        </linearGradient>
        <linearGradient x1="0.00281027469%" y1="50.0111419%" x2="100.007936%" y2="50.0111419%" id="linearGradient-20">
            <stop stop-color="#F4BA68" offset="0%"></stop>
            <stop stop-color="#EF981E" offset="100%"></stop>
        </linearGradient>
        <linearGradient x1="0.0418996081%" y1="49.9877271%" x2="100.002861%" y2="49.9877271%" id="linearGradient-21">
            <stop stop-color="#F4BA68" offset="0%"></stop>
            <stop stop-color="#EF981E" offset="100%"></stop>
        </linearGradient>
        <linearGradient x1="-0.0170634623%" y1="49.9869906%" x2="99.9281209%" y2="49.9869906%" id="linearGradient-22">
            <stop stop-color="#F4BA68" offset="0%"></stop>
            <stop stop-color="#EF981E" offset="100%"></stop>
        </linearGradient>
        <linearGradient x1="0.00162089724%" y1="50.0049047%" x2="100.028705%" y2="50.0049047%" id="linearGradient-23">
            <stop stop-color="#F4BA68" offset="0%"></stop>
            <stop stop-color="#EF981E" offset="100%"></stop>
        </linearGradient>
        <linearGradient x1="0.00550771182%" y1="49.9887499%" x2="99.9799253%" y2="49.9887499%" id="linearGradient-24">
            <stop stop-color="#F4BA68" offset="0%"></stop>
            <stop stop-color="#EF981E" offset="100%"></stop>
        </linearGradient>
        <linearGradient x1="-0.00793278944%" y1="50.0043674%" x2="99.9969423%" y2="50.0043674%" id="linearGradient-25">
            <stop stop-color="#F0EEF9" offset="0%"></stop>
            <stop stop-color="#E5E1F5" offset="100%"></stop>
        </linearGradient>
    </defs>
    <g id="App-onboarding-improved" stroke="none" stroke-width="1" fill="none" fill-rule="evenodd">
        <g id="Artboard" transform="translate(-205.000000, -288.000000)" fill-rule="nonzero">
            <g id="Keyn_Great_visual" transform="translate(205.000000, 288.000000)">
                <g id="Layer_3">
                    <g id="Group">
                        <rect id="Rectangle" fill="url(#linearGradient-1)" x="0.05" y="0.17" width="1481.9" height="961.53"></rect>
                        <path d="M859.93,200.89 L868.14,196.44 C868.83,196.06 869.3,195.37 869.38,194.59 L870.37,185.31 C870.58,183.34 872.96,182.46 874.4,183.83 L881.16,190.26 C881.73,190.8 882.53,191.03 883.3,190.87 L892.43,188.94 C894.37,188.53 895.94,190.53 895.08,192.32 L891.05,200.74 C890.71,201.45 890.74,202.28 891.13,202.97 L895.78,211.06 C896.77,212.78 895.36,214.89 893.39,214.63 L884.14,213.4 C883.36,213.3 882.58,213.58 882.05,214.17 L875.79,221.1 C874.46,222.57 872.02,221.88 871.66,219.93 L869.97,210.75 C869.83,209.98 869.31,209.32 868.59,209 L860.07,205.19 C858.28,204.37 858.19,201.83 859.93,200.89 Z" id="Path" fill="url(#linearGradient-2)"></path>
                        <path d="M405.27,118 L411.03,121.79 C411.52,122.11 412.13,122.17 412.67,121.95 L419.05,119.36 C420.41,118.81 421.81,120.05 421.42,121.47 L419.59,128.12 C419.44,128.68 419.57,129.28 419.94,129.73 L424.38,135 C425.32,136.12 424.57,137.84 423.11,137.9 L416.23,138.22 C415.65,138.25 415.12,138.56 414.81,139.05 L411.17,144.9 C410.4,146.14 408.53,145.96 408.02,144.59 L405.59,138.14 C405.38,137.6 404.93,137.19 404.36,137.05 L397.67,135.4 C396.25,135.05 395.85,133.22 396.99,132.3 L402.37,128 C402.82,127.64 403.07,127.07 403.03,126.49 L402.54,119.62 C402.43,118.15 404.04,117.2 405.27,118 Z" id="Path" fill="url(#linearGradient-3)"></path>
                        <rect id="Rectangle" fill="url(#linearGradient-4)" x="552.3" y="223.51" width="275.89" height="738.18"></rect>
                        <rect id="Rectangle" fill="#FFFFFF" x="569.9" y="244.23" width="241.34" height="725.6"></rect>
                        <path d="M614.38,503.15 L977.82,841.31 C977.82,841.31 1018.75,893.75 977.82,934.68 C977.82,934.68 927.62,991.91 875.5,939.8 L635.15,717.24 L635.15,741.54 L625.8,786.3 L424.8,898.22 L340.89,795.26 L486.69,701.89 L490.15,554.9 L495.33,540.62 L614.38,503.15 Z" id="Path" fill="url(#linearGradient-5)"></path>
                        <path d="M458.81,361.34 L483.81,420.72 C483.81,420.72 498.81,439.72 519.81,429.72 C519.81,429.72 537.81,421.25 535.81,396.99 L524.81,374.72 C524.81,374.72 541.81,363.72 540.81,342.72 C540.81,342.72 539.15,320.68 519.07,307.06 C519.07,307.06 516.56,292 506.88,279.81 C506.88,279.81 473.9,255.07 437.33,285.19 C437.33,285.19 428.37,306.7 435.54,321.76 C435.54,321.76 416.9,334.31 428.73,354.02 C428.73,354.02 439.77,370.1 458.81,361.34 Z" id="Path" fill="url(#linearGradient-6)"></path>
                        <path d="M469.6,256.51 C469.6,256.51 473.54,238.23 493.26,237.15 C493.26,237.15 526.6,238.58 506.88,279.81 C506.88,279.81 499.71,285.19 486.8,283.75 L463.5,295.22 C463.5,295.22 455.97,298.8 462.07,309.2 C462.07,309.2 470.67,324.26 468.88,332.14 C468.88,332.14 458.84,310.99 435.54,321.74 C435.54,321.74 426.22,303.1 437.33,285.17 C437.33,285.17 429.8,268.68 445.58,259 C445.58,259.02 454.54,252.21 469.6,256.51 Z" id="Path" fill="url(#linearGradient-7)"></path>
                        <path d="M479.05,409.42 C479.05,409.42 440.2,420.85 424.8,465.36 L390.25,558.53 C390.25,558.53 379.9,594.76 400.08,607.71 L498.95,665.17 C498.95,665.17 541.4,688.46 560.03,648.09 C560.03,648.09 591.03,606.16 540.85,581.83 L490.15,554.91 L495.33,540.63 L614.39,503.14 L611.28,487.61 L672.88,501.07 L827.13,507.28 C827.13,507.28 876.82,510.39 882.52,467.42 C882.52,467.42 888.73,418.76 831.79,414.1 L688.92,409.4 L566.76,385.11 C566.76,385.11 546.64,381.99 532.63,390.54 L479.05,409.42 Z" id="Path" fill="url(#linearGradient-8)"></path>
                        <path d="M663.83,834.27 L663.83,762.01 C658.71,737.07 635.15,741.55 635.15,741.55 L610.75,741.55 C609.47,680.8 557.03,690.39 557.03,690.39 C506.51,697.42 513.11,741.55 513.11,741.55 L482.82,742.19 C458.49,742.19 458.549999,765.21 458.549999,765.21 L458.549999,829.8 C458.549999,870.09 486.049999,859.23 486.049999,859.23 L642.73,859.22 C667.03,859.85 663.83,834.27 663.83,834.27 Z M529.54,741.55 C529.54,741.55 531.6,706.38 561.26,706.38 C561.26,706.38 592.21,703.82 592.21,741.55 L529.54,741.55 Z" id="Shape" fill="url(#linearGradient-9)"></path>
                        <path d="M569.19,624.66 C569.19,624.66 599.25,672.48 596.69,713.4 L596.84,733.22 C596.84,733.22 599.88,749.85 589.01,751.13 C589.01,751.13 583.25,753.05 580.06,737.06 L573.03,704.45 C573.03,704.45 575.59,719.16 563.44,719.8 C563.44,719.8 551.29,720.44 550.01,708.29 C550.01,708.29 554.72,715.96 540.85,717.88 C540.85,717.88 528.9,724.27 526.98,705.09 C526.98,705.09 528.9,673.12 501.4,644.98 C501.4,644.98 485.38,608.38 513.11,595.1 C513.12,595.1 554.48,569.81 569.19,624.66 Z" id="Path" fill="url(#linearGradient-10)"></path>
                        <path d="M340.89,795.26 L234.73,879.03 L262.87,914.2 L304.44,884.78 L308.92,940.42 L340.89,961.69 L463.03,961.69 C463.03,961.69 459.47,926.35 424.8,926.35 C424.8,926.35 404.84,918.04 416.35,909.08 L424.8,898.21 L340.89,795.26 Z" id="Path" fill="url(#linearGradient-11)"></path>
                        <path d="M829.18,260.01 L883.71,294.54 C883.71,294.54 907.84,255.58 947.49,284.65 C947.49,284.65 974.99,306.69 956.44,337.38 L1006.32,369.35 C1006.32,369.35 1047.89,285.58 983.94,233.14 C983.94,233.15 907.84,168.56 829.18,260.01 Z" id="Path" fill="url(#linearGradient-12)"></path>
                        <circle id="Oval" fill="url(#linearGradient-13)" cx="937.54" cy="407.09" r="69.54"></circle>
                        <path d="M1135.31,645.45 C1047.98,645.45 977.19,716.24 977.19,803.57 C977.19,890.9 1047.98,961.69 1135.31,961.69 C1222.64,961.69 1293.43,890.9 1293.43,803.57 C1293.43,716.24 1222.64,645.45 1135.31,645.45 Z M1135.31,873.11 C1096.91,873.11 1065.77,841.98 1065.77,803.57 C1065.77,765.17 1096.9,734.03 1135.31,734.03 C1173.71,734.03 1204.85,765.16 1204.85,803.57 C1204.84,841.98 1173.71,873.11 1135.31,873.11 Z" id="Shape" fill="url(#linearGradient-14)"></path>
                        <path d="M1296.66,617.95 C1257.19,664.05 1187.82,669.43 1141.72,629.96 C1095.62,590.49 1090.24,521.12 1129.71,475.02 L1296.66,617.95 Z" id="Path" fill="url(#linearGradient-15)"></path>
                        <path d="M1158.04,445.71 L1083.23,456.93 C1046.25,462.48 1011.77,437 1006.22,400.02 L1005.66,396.3 C1000.11,359.32 1025.59,324.84 1062.57,319.29 L1137.37,308.07 C1174.35,302.52 1208.83,328 1214.38,364.98 L1214.94,368.7 C1220.5,405.69 1195.02,440.17 1158.04,445.71 Z" id="Path" fill="url(#linearGradient-16)"></path>
                        <path d="M1092.29,480.63 C1090.37,482.55 977.18,568.88 977.18,568.88 L1117.87,638.58 L1092.29,480.63 Z" id="Path" fill="url(#linearGradient-17)"></path>
                        <path d="M1014.2,699.63 L908.86,752.38 C895.75,758.94 879.81,753.64 873.24,740.53 L820.49,635.19 C813.93,622.08 819.23,606.14 832.34,599.57 L937.68,546.82 C950.79,540.26 966.73,545.56 973.3,558.67 L1026.05,664.01 C1032.61,677.12 1027.3,693.07 1014.2,699.63 Z" id="Path" fill="url(#linearGradient-18)"></path>
                        <path d="M1264.61,455.11 L878.53,513.04 C873.86,513.74 869.5,510.52 868.8,505.85 L867.57,497.64 C866.87,492.97 870.09,488.61 874.76,487.91 L1260.84,429.98 C1265.51,429.28 1269.87,432.5 1270.57,437.17 L1271.8,445.38 C1272.5,450.05 1269.28,454.41 1264.61,455.11 Z" id="Path" fill="url(#linearGradient-19)"></path>
                        <path d="M1049.44,201.44 L1073.78,217.46 C1075.83,218.81 1078.42,219.07 1080.7,218.14 L1107.7,207.17 C1113.44,204.84 1119.36,210.1 1117.72,216.07 L1110,244.17 C1109.35,246.54 1109.91,249.08 1111.49,250.96 L1130.26,273.25 C1134.25,277.99 1131.08,285.25 1124.89,285.53 L1095.78,286.87 C1093.32,286.98 1091.08,288.3 1089.78,290.39 L1074.38,315.13 C1071.11,320.39 1063.22,319.61 1061.04,313.82 L1050.77,286.55 C1049.9,284.25 1047.96,282.52 1045.57,281.93 L1017.28,274.93 C1011.27,273.44 1009.57,265.7 1014.41,261.84 L1037.17,243.64 C1039.09,242.1 1040.13,239.72 1039.96,237.27 L1037.87,208.2 C1037.43,202.04 1044.26,198.03 1049.44,201.44 Z" id="Path" fill="url(#linearGradient-20)"></path>
                        <path d="M331.65,120.24 L322.33,120.81 C321.54,120.86 320.83,121.29 320.42,121.96 L315.6,129.96 C314.58,131.66 312.05,131.45 311.32,129.6 L307.9,120.91 C307.61,120.18 306.98,119.63 306.21,119.45 L297.12,117.34 C295.19,116.89 294.61,114.42 296.14,113.16 L303.35,107.23 C303.96,106.73 304.28,105.96 304.21,105.18 L303.41,95.88 C303.24,93.9 305.41,92.59 307.08,93.65 L314.95,98.67 C315.61,99.09 316.44,99.16 317.17,98.86 L325.77,95.22 C327.6,94.45 329.52,96.1 329.02,98.03 L326.68,107.07 C326.48,107.83 326.67,108.64 327.19,109.24 L333.31,116.29 C334.62,117.78 333.64,120.12 331.65,120.24 Z" id="Path" fill="url(#linearGradient-21)"></path>
                        <path d="M674.75,156.35 L676.63,149.6 C676.79,149.03 676.66,148.42 676.28,147.97 L671.78,142.6 C670.82,141.46 671.59,139.72 673.08,139.65 L680.08,139.35 C680.67,139.32 681.21,139.01 681.53,138.51 L685.25,132.57 C686.04,131.31 687.94,131.5 688.46,132.9 L690.91,139.46 C691.12,140.01 691.58,140.43 692.16,140.57 L698.96,142.27 C700.4,142.63 700.81,144.49 699.64,145.42 L694.15,149.78 C693.69,150.15 693.43,150.72 693.48,151.31 L693.96,158.3 C694.06,159.79 692.42,160.74 691.17,159.92 L685.33,156.05 C684.84,155.72 684.21,155.66 683.67,155.88 L677.17,158.5 C675.77,159.06 674.35,157.79 674.75,156.35 Z" id="Path" fill="url(#linearGradient-22)"></path>
                        <path d="M828.09,108.83 L837.04,99.86 C837.8,99.1 838.13,98.02 837.93,96.97 L835.62,84.51 C835.13,81.86 837.89,79.8 840.29,81.02 L851.59,86.76 C852.54,87.24 853.67,87.23 854.61,86.72 L865.74,80.67 C868.11,79.38 870.92,81.37 870.5,84.03 L868.53,96.55 C868.36,97.61 868.73,98.68 869.5,99.41 L878.69,108.13 C880.64,109.98 879.63,113.27 876.97,113.7 L864.46,115.7 C863.4,115.87 862.5,116.55 862.04,117.51 L856.59,128.95 C855.43,131.38 851.99,131.43 850.76,129.03 L845,117.75 C844.51,116.8 843.59,116.15 842.53,116.01 L829.97,114.36 C827.3,114 826.19,110.74 828.09,108.83 Z" id="Path" fill="url(#linearGradient-23)"></path>
                        <path d="M573.22,70.16 L571.1,77.86 C570.92,78.51 571.07,79.21 571.51,79.72 L576.64,85.83 C577.73,87.13 576.86,89.12 575.16,89.19 L567.18,89.55 C566.51,89.58 565.89,89.94 565.53,90.51 L561.3,97.28 C560.4,98.72 558.24,98.5 557.65,96.92 L554.85,89.45 C554.61,88.82 554.08,88.34 553.43,88.18 L545.68,86.25 C544.03,85.84 543.57,83.72 544.9,82.66 L551.14,77.68 C551.67,77.26 551.95,76.61 551.91,75.94 L551.35,67.98 C551.23,66.29 553.1,65.19 554.52,66.13 L561.18,70.53 C561.74,70.9 562.45,70.97 563.08,70.72 L570.48,67.73 C572.05,67.08 573.67,68.52 573.22,70.16 Z" id="Path" fill="url(#linearGradient-24)"></path>
                        <path d="M996.25,546.92 L931.85,542.42 C922.05,541.74 914.67,533.24 915.35,523.44 L915.47,521.69 C916.15,511.89 924.65,504.51 934.45,505.19 L998.85,509.69 C1008.65,510.37 1016.03,518.87 1015.35,528.67 L1015.23,530.42 C1014.54,540.21 1006.04,547.6 996.25,546.92 Z" id="Path" fill="url(#linearGradient-25)"></path>
                        <rect id="Rectangle" fill="#161066" x="811.24" y="223.51" width="16.94" height="738.18"></rect>
                        <path d="M710.02,417.71 C709.9,417.71 709.77,417.69 709.65,417.66 L687.59,412.1 C686.79,411.9 686.3,411.08 686.5,410.28 C686.7,409.48 687.52,408.99 688.32,409.19 L710.38,414.75 C711.18,414.95 711.67,415.77 711.47,416.57 C711.3,417.26 710.69,417.71 710.02,417.71 Z" id="Path" fill="#161066"></path>
                        <path d="M611.27,489.12 C610.52,489.12 609.88,488.56 609.78,487.8 L605.49,453.13 C605.39,452.31 605.97,451.56 606.79,451.46 C607.61,451.36 608.36,451.94 608.46,452.76 L612.75,487.43 C612.85,488.25 612.27,489 611.45,489.1 C611.4,489.11 611.33,489.12 611.27,489.12 Z" id="Path" fill="#161066"></path>
                        <path d="M490.15,556.41 C489.97,556.41 489.78,556.38 489.6,556.3 C488.83,555.99 488.45,555.12 488.76,554.35 L511.73,496.69 C512.04,495.92 512.91,495.55 513.68,495.85 C514.45,496.16 514.83,497.03 514.52,497.8 L491.55,555.46 C491.31,556.05 490.74,556.41 490.15,556.41 Z" id="Path" fill="#161066"></path>
                        <path d="M635.15,718.74 C634.38,718.74 633.73,718.16 633.66,717.38 L624.31,616.36 C624.23,615.53 624.84,614.8 625.67,614.73 C626.49,614.65 627.23,615.26 627.3,616.08 L636.65,717.1 C636.73,717.93 636.12,718.66 635.3,718.73 C635.24,718.74 635.2,718.74 635.15,718.74 Z" id="Path" fill="#161066"></path>
                        <path d="M313.96,518.79 C313.65,518.79 313.34,518.69 313.07,518.5 L271.3,487.63 C270.63,487.14 270.49,486.2 270.99,485.53 C271.48,484.86 272.42,484.72 273.09,485.22 L314.86,516.09 C315.53,516.58 315.67,517.52 315.17,518.19 C314.87,518.58 314.42,518.79 313.96,518.79 Z" id="Path" fill="#161066"></path>
                        <path d="M249.95,568.27 C249.15,568.27 248.49,567.64 248.45,566.84 C248.41,566.01 249.05,565.31 249.88,565.28 L301.18,563.01 C302.02,562.98 302.71,563.61 302.74,564.44 C302.78,565.27 302.14,565.97 301.31,566 L250.01,568.27 C249.99,568.27 249.97,568.27 249.95,568.27 Z" id="Path" fill="#161066"></path>
                        <path d="M275.6,650.44 C275.06,650.44 274.53,650.14 274.26,649.62 C273.88,648.88 274.17,647.98 274.91,647.6 L318.27,625.35 C319.01,624.97 319.91,625.26 320.29,626 C320.67,626.74 320.38,627.64 319.64,628.02 L276.28,650.27 C276.06,650.39 275.83,650.44 275.6,650.44 Z" id="Path" fill="#161066"></path>
                        <path d="M495.53,384.61 C492.22,384.61 488.59,384.41 484.64,383.95 L484.99,380.97 C513.08,384.25 523.62,373.79 523.73,373.68 L525.88,375.77 C525.48,376.18 516.99,384.61 495.53,384.61 Z" id="Path" fill="#161066"></path>
                        <polygon id="Path" fill="#161066" points="448.04 348.02 445.93 345.88 453.98 337.95 437.02 337.44 437.11 334.44 461.08 335.17"></polygon>
                        <path d="M482.92,331.66 C481.52,331.66 479.98,331.47 478.36,330.98 C472.73,329.27 467.94,324.49 464.13,316.76 L463.43,315.34 L532.24,285.59 L536.34,294.58 C537.75,299.5 538.06,309.85 529.23,313.85 C528.38,314.34 521.78,317.89 514.21,315.7 C508.87,314.15 504.41,310.16 500.92,303.82 L497.71,305.42 C498.95,308.01 501.09,313.71 499.43,319.52 C498.17,323.93 494.99,327.45 489.98,329.98 C489.89,330.05 487.03,331.66 482.92,331.66 Z M467.53,316.84 C470.82,322.96 474.75,326.75 479.22,328.11 C484.41,329.69 488.52,327.37 488.56,327.35 C492.86,325.18 495.52,322.28 496.55,318.7 C498.39,312.25 494.43,305.62 494.39,305.55 L494.24,305.3 L467.53,316.84 Z M503.07,301.48 C506.23,307.61 510.24,311.42 515.01,312.82 C521.69,314.77 527.71,311.27 527.77,311.24 L527.93,311.16 C536.29,307.43 533.78,296.66 533.48,295.52 L530.73,289.53 L503.07,301.48 Z" id="Shape" fill="#161066"></path>
                        <circle id="Oval" fill="#161066" cx="485.75" cy="314.94" r="3.72"></circle>
                        <circle id="Oval" fill="#161066" cx="515.98" cy="304.09" r="3.72"></circle>
                        <polygon id="Path" fill="#161066" points="502.56 325.09 501.5 322.29 510.08 319.04 504.07 308.55 506.67 307.06 514.44 320.59"></polygon>
                        <path d="M500.52,339.97 L520.95,332.84 C520.95,332.84 524.36,345.86 516.61,348.5 C516.6,348.5 508.28,353.42 500.52,339.97 Z" id="Path" fill="#FFFFFF"></path>
                    </g>
                </g>
            </g>
        </g>
    </g>
</svg>