<?xml version="1.0" encoding="UTF-8"?>
<svg width="30px" height="30px" viewBox="0 0 26 26" version="1.1" xmlns="http://www.w3.org/2000/svg" xmlns:xlink="http://www.w3.org/1999/xlink">
    <!-- Generator: Sketch 54.1 (76490) - https://sketchapp.com -->
    <title>Group 2</title>
    <desc>Created with Sketch.</desc>
    <g id="Website" stroke="none" stroke-width="1" fill="none" fill-rule="evenodd">
        <g id="Keyn-Setup" transform="translate(-625.000000, -1016.000000)" fill-rule="nonzero">
            <g id="Group-9" transform="translate(620.000000, 1016.000000)">
                <g id="Group" transform="translate(5.000000, 0.000000)">
                    <g id="Group-2">
                        <circle id="Oval" fill="#EE8C00" cx="13" cy="13" r="13"></circle>
                        <path d="M16.868,16.152 L16.868,18 L9.462,18 L9.462,16.53 L13.242,12.96 C13.6433353,12.5773314 13.9139993,12.2483347 14.054,11.973 C14.1940007,11.6976653 14.264,11.424668 14.264,11.154 C14.264,10.761998 14.1310013,10.4610011 13.865,10.251 C13.5989987,10.0409989 13.2093359,9.936 12.696,9.936 C12.2666645,9.936 11.8793351,10.0176659 11.534,10.181 C11.1886649,10.3443342 10.8993345,10.5893317 10.666,10.916 L9.014,9.852 C9.39666858,9.28266382 9.92399664,8.83700161 10.596,8.515 C11.2680034,8.19299839 12.0379957,8.032 12.906,8.032 C13.6340036,8.032 14.2709973,8.15099881 14.817,8.389 C15.3630027,8.62700119 15.7876652,8.96299783 16.091,9.397 C16.3943348,9.83100217 16.546,10.3419971 16.546,10.93 C16.546,11.4620027 16.4340011,11.961331 16.21,12.428 C15.9859989,12.894669 15.5520032,13.4266637 14.908,14.024 L12.654,16.152 L16.868,16.152 Z" id="2" fill="#FFFFFF"></path>
                    </g>
                </g>
            </g>
        </g>
    </g>
</svg>