<?xml version="1.0" encoding="UTF-8"?>
<svg width="30px" height="30px" viewBox="0 0 26 26" version="1.1" xmlns="http://www.w3.org/2000/svg" xmlns:xlink="http://www.w3.org/1999/xlink">
    <!-- Generator: Sketch 54.1 (76490) - https://sketchapp.com -->
    <title>Group 2</title>
    <desc>Created with Sketch.</desc>
    <g id="Website" stroke="none" stroke-width="1" fill="none" fill-rule="evenodd">
        <g id="Keyn-Setup" transform="translate(-620.000000, -1846.000000)" fill-rule="nonzero">
            <g id="Group-9" transform="translate(620.000000, 1016.000000)">
                <g id="Group-8" transform="translate(0.000000, 830.000000)">
                    <g id="Group-2">
                        <circle id="Oval" fill="#EE8C00" cx="13" cy="13" r="13"></circle>
                        <path d="M12.906,11.882 C14.2873402,11.882 15.3069967,12.1573306 15.965,12.708 C16.6230033,13.2586694 16.952,13.9959954 16.952,14.92 C16.952,15.5173363 16.8026682,16.0609975 16.504,16.551 C16.2053318,17.0410025 15.7503364,17.4329985 15.139,17.727 C14.5276636,18.0210015 13.7740045,18.168 12.878,18.168 C12.1873299,18.168 11.5083367,18.0770009 10.841,17.895 C10.1736633,17.7129991 9.606669,17.4540017 9.14,17.118 L10.036,15.382 C10.4093352,15.6620014 10.8386642,15.8789992 11.324,16.033 C11.8093358,16.1870008 12.3086641,16.264 12.822,16.264 C13.3913362,16.264 13.8393317,16.1520011 14.166,15.928 C14.4926683,15.7039989 14.656,15.3913353 14.656,14.99 C14.656,14.5699979 14.4856684,14.2526677 14.145,14.038 C13.8043316,13.8233323 13.2140042,13.716 12.374,13.716 L9.868,13.716 L10.372,8.2 L16.35,8.2 L16.35,10.02 L12.262,10.02 L12.108,11.882 L12.906,11.882 Z" id="5" fill="#FFFFFF"></path>
                    </g>
                </g>
            </g>
        </g>
    </g>
</svg>