<?xml version="1.0" encoding="UTF-8"?>
<svg width="30px" height="30px" viewBox="0 0 26 26" version="1.1" xmlns="http://www.w3.org/2000/svg" xmlns:xlink="http://www.w3.org/1999/xlink">
    <!-- Generator: Sketch 54.1 (76490) - https://sketchapp.com -->
    <title>Group 2</title>
    <desc>Created with Sketch.</desc>
    <g id="Website" stroke="none" stroke-width="1" fill="none" fill-rule="evenodd">
        <g id="Keyn-Setup" transform="translate(-624.000000, -1196.000000)" fill-rule="nonzero">
            <g id="Group-9" transform="translate(620.000000, 1016.000000)">
                <g id="Group" transform="translate(4.000000, 180.000000)">
                    <g id="Group-2">
                        <circle id="Oval" fill="#EE8C00" cx="13" cy="13" r="13"></circle>
                        <path d="M14.124,12.19 C14.982671,12.3300007 15.6406644,12.6496642 16.098,13.149 C16.5553356,13.6483358 16.784,14.266663 16.784,15.004 C16.784,15.5733362 16.6346682,16.0983309 16.336,16.579 C16.0373318,17.0596691 15.5823364,17.4446652 14.971,17.734 C14.3596636,18.0233348 13.6106711,18.168 12.724,18.168 C12.0333299,18.168 11.3543367,18.0770009 10.687,17.895 C10.0196633,17.7129991 9.452669,17.4540017 8.986,17.118 L9.868,15.382 C10.2413352,15.6620014 10.6729975,15.8789992 11.163,16.033 C11.6530025,16.1870008 12.1546641,16.264 12.668,16.264 C13.2373362,16.264 13.6853317,16.1543344 14.012,15.935 C14.3386683,15.7156656 14.502,15.4053353 14.502,15.004 C14.502,14.2013293 13.8906728,13.8 12.668,13.8 L11.632,13.8 L11.632,12.302 L13.648,10.02 L9.476,10.02 L9.476,8.2 L16.336,8.2 L16.336,9.67 L14.124,12.19 Z" id="3" fill="#FFFFFF"></path>
                    </g>
                </g>
            </g>
        </g>
    </g>
</svg>