<svg width="20px" height="26px" viewBox="0 0 20 26" version="1.1" xmlns="http://www.w3.org/2000/svg" xmlns:xlink="http://www.w3.org/1999/xlink">
    <g class="lock-small" stroke="none" stroke-width="1" fill="none" fill-rule="evenodd">
        <g fill-rule="nonzero">
            <path d="M1,10 L19,10 C19.5522847,10 20,10.4477153 20,11 L20,25 C20,25.5522847 19.5522847,26 19,26 L1,26 C0.44771525,26 6.76353751e-17,25.5522847 0,25 L0,11 C-6.76353751e-17,10.4477153 0.44771525,10 1,10 Z M8,14 L8,20 L12,20 L12,14 L8,14 Z" id="Combined-Shape" fill="#4722C3"></path>
            <path d="M4.5,11.5 L15.5,11.5 L15.5,6 C15.5,2.96243388 13.0375661,0.5 10,0.5 C6.96243388,0.5 4.5,2.96243388 4.5,6 L4.5,11.5 Z" id="Rectangle" stroke="#4722C3"></path>
        </g>
    </g>
</svg>