<?xml version="1.0" encoding="UTF-8"?>
<svg width="291px" height="323px" viewBox="0 0 291 323" version="1.1" xmlns="http://www.w3.org/2000/svg" xmlns:xlink="http://www.w3.org/1999/xlink">
    <!-- Generator: Sketch 59.1 (86144) - https://sketch.com -->
    <title>Logo</title>
    <desc>Created with Sketch.</desc>
    <g id="Logo" stroke="none" stroke-width="1" fill="none" fill-rule="evenodd">
        <g id="Logo_inner" fill="#4722C3">
            <path d="M145.442826,2.84217094e-14 C225.76868,2.84217094e-14 290.885651,65.2292527 290.885651,145.693614 C290.885651,210.182007 249.059282,264.884483 191.098955,284.064328 C188.157974,306.02077 169.380512,322.954177 146.654849,322.954177 C124.210194,322.954177 105.616704,306.436952 102.32694,284.874814 C43.0523869,266.474273 0,211.120324 0,145.693614 C0,65.2292527 65.1169711,2.84217094e-14 145.442826,2.84217094e-14 Z" id="Combined-Shape"></path>
        </g>
        <path d="M75.6161765,174.9 C70.2661497,174.9 65.4286981,173.737512 61.1036765,171.4125 C56.7786548,169.087488 53.3786888,165.862521 50.9036765,161.7375 C48.4286641,157.612479 47.1911765,152.950026 47.1911765,147.75 C47.1911765,142.549974 48.4286641,137.887521 50.9036765,133.7625 C53.3786888,129.637479 56.7786548,126.412512 61.1036765,124.0875 C65.4286981,121.762488 70.2911495,120.6 75.6911765,120.6 C80.2411992,120.6 84.3536581,121.399992 88.0286765,123 C91.7036948,124.6 94.791164,126.899985 97.2911765,129.9 L89.4911765,137.1 C85.9411587,132.999979 81.5412027,130.95 76.2911765,130.95 C73.0411602,130.95 70.1411892,131.662493 67.5911765,133.0875 C65.0411637,134.512507 63.0536836,136.499987 61.6286765,139.05 C60.2036693,141.600013 59.4911765,144.499984 59.4911765,147.75 C59.4911765,151.000016 60.2036693,153.899987 61.6286765,156.45 C63.0536836,159.000013 65.0411637,160.987493 67.5911765,162.4125 C70.1411892,163.837507 73.0411602,164.55 76.2911765,164.55 C81.5412027,164.55 85.9411587,162.475021 89.4911765,158.325 L97.2911765,165.525 C94.791164,168.575015 91.691195,170.899992 87.9911765,172.5 C84.291158,174.1 80.1661992,174.9 75.6161765,174.9 Z M129.166176,133.05 C134.166201,133.05 138.203661,134.549985 141.278676,137.55 C144.353692,140.550015 145.891176,144.999971 145.891176,150.9 L145.891176,174 L134.191176,174 L134.191176,152.7 C134.191176,149.499984 133.491183,147.112508 132.091176,145.5375 C130.691169,143.962492 128.66619,143.175 126.016176,143.175 C123.066162,143.175 120.716185,144.087491 118.966176,145.9125 C117.216168,147.737509 116.341176,150.449982 116.341176,154.05 L116.341176,174 L104.641176,174 L104.641176,118.35 L116.341176,118.35 L116.341176,137.85 C117.891184,136.299992 119.766165,135.112504 121.966176,134.2875 C124.166187,133.462496 126.566163,133.05 129.166176,133.05 Z M156.466176,133.65 L168.166176,133.65 L168.166176,174 L156.466176,174 L156.466176,133.65 Z M162.316176,128.025 C160.166166,128.025 158.416183,127.400006 157.066176,126.15 C155.71617,124.899994 155.041176,123.350009 155.041176,121.5 C155.041176,119.649991 155.71617,118.100006 157.066176,116.85 C158.416183,115.599994 160.166166,114.975 162.316176,114.975 C164.466187,114.975 166.21617,115.574994 167.566176,116.775 C168.916183,117.975 169.591176,119.475 169.591176,121.275 C169.591176,123.22501 168.916183,124.837494 167.566176,126.1125 C166.21617,127.387506 164.466187,128.025 162.316176,128.025 Z M195.175,134.55 L205.525,134.55 L205.525,143.55 L195.475,143.55 L195.475,174 L183.775,174 L183.775,143.55 L177.55,143.55 L177.55,134.55 L183.775,134.55 L183.775,132.75 C183.775,128.149977 185.137486,124.500013 187.8625,121.8 C190.587514,119.099986 194.424975,117.75 199.375,117.75 C201.125009,117.75 202.787492,117.937498 204.3625,118.3125 C205.937508,118.687502 207.249995,119.224997 208.3,119.925 L205.225,128.4 C203.874993,127.449995 202.300009,126.975 200.5,126.975 C196.949982,126.975 195.175,128.924981 195.175,132.825 L195.175,134.55 Z M230.2,134.55 L240.55,134.55 L240.55,143.55 L230.5,143.55 L230.5,174 L218.8,174 L218.8,143.55 L212.575,143.55 L212.575,134.55 L218.8,134.55 L218.8,132.75 C218.8,128.149977 220.162486,124.500013 222.8875,121.8 C225.612514,119.099986 229.449975,117.75 234.4,117.75 C236.150009,117.75 237.812492,117.937498 239.3875,118.3125 C240.962508,118.687502 242.274995,119.224997 243.325,119.925 L240.25,128.4 C238.899993,127.449995 237.325009,126.975 235.525,126.975 C231.974982,126.975 230.2,128.924981 230.2,132.825 L230.2,134.55 Z" id="Chiff" fill="#FFFFFF" fill-rule="nonzero"></path>
    </g>
</svg>