<?xml version="1.0" encoding="UTF-8"?>
<svg width="145px" height="145px" viewBox="0 0 145 145" version="1.1" xmlns="http://www.w3.org/2000/svg" xmlns:xlink="http://www.w3.org/1999/xlink">
    <!-- Generator: Sketch 54.1 (76490) - https://sketchapp.com -->
    <title>price</title>
    <desc>Created with Sketch.</desc>
    <g id="Website" stroke="none" stroke-width="1" fill="none" fill-rule="evenodd">
        <g id="Keyn-web-w/-why-block" transform="translate(-1089.000000, -2896.000000)">
            <g id="price" transform="translate(1094.000000, 2901.000000)">
                <circle id="Oval" stroke="#120050" stroke-width="10" fill="#4722C3" cx="67.5" cy="67.5" r="67.5"></circle>
                <path d="M46.054615,78.1381215 C49.5336056,78.1381215 52.4658537,76.7624447 54.8514473,74.0110497 L59.9705079,78.7845304 C58.3138457,80.8066399 56.2678986,82.348061 53.8326051,83.4088398 C51.3973117,84.4696186 48.6721432,85 45.657018,85 C42.7744258,85 40.0989565,84.486193 37.6305298,83.4585635 C35.1621031,82.4309341 33.0664568,80.9723851 31.3435281,79.0828729 C29.6205994,77.1933607 28.3781214,75.0055373 27.6160568,72.519337 L22,72.519337 L22,68.3425414 L26.8705625,68.3425414 C26.8374293,68.0441974 26.8208629,67.5966881 26.8208629,67 C26.8208629,66.4033119 26.8374293,65.9558026 26.8705625,65.6574586 L22,65.6574586 L22,61.480663 L27.6160568,61.480663 C28.3781214,58.9944627 29.6205994,56.8066393 31.3435281,54.9171271 C33.0664568,53.0276149 35.1621031,51.5690659 37.6305298,50.5414365 C40.0989565,49.513807 42.7744258,49 45.657018,49 C48.6721432,49 51.3973117,49.5303814 53.8326051,50.5911602 C56.2678986,51.651939 58.3138457,53.1767856 59.9705079,55.1657459 L54.8514473,59.9392265 C52.4327205,57.2209809 49.5004724,55.8618785 46.054615,55.8618785 C43.8678209,55.8618785 41.9129888,56.359111 40.1900601,57.3535912 C38.4671314,58.3480713 37.1418215,59.7237481 36.2140907,61.480663 L48.7880939,61.480663 L48.7880939,65.6574586 L34.9716002,65.6574586 C34.938467,65.9558026 34.9219006,66.4033119 34.9219006,67 C34.9219006,67.5966881 34.938467,68.0441974 34.9716002,68.3425414 L48.7880939,68.3425414 L48.7880939,72.519337 L36.2140907,72.519337 C37.1418215,74.2762519 38.4671314,75.6519287 40.1900601,76.6464088 C41.9129888,77.640889 43.8678209,78.1381215 46.054615,78.1381215 Z M77.116876,49.5966851 L77.116876,84.4033149 L69.065538,84.4033149 L69.065538,56.0607735 L62.1075915,56.0607735 L62.1075915,49.5966851 L77.116876,49.5966851 Z M98.0901147,85 C95.2075225,85 92.6397345,84.2872999 90.3866739,82.8618785 C88.1336133,81.436457 86.3692946,79.3729417 85.0936647,76.6712707 C83.8180348,73.9695998 83.1802294,70.7458751 83.1802294,67 C83.1802294,63.2541249 83.8180348,60.0304002 85.0936647,57.3287293 C86.3692946,54.6270583 88.1336133,52.563543 90.3866739,51.1381215 C92.6397345,49.7127001 95.2075225,49 98.0901147,49 C100.972707,49 103.540495,49.7127001 105.793555,51.1381215 C108.046616,52.563543 109.810935,54.6270583 111.086565,57.3287293 C112.362195,60.0304002 113,63.2541249 113,67 C113,70.7458751 112.362195,73.9695998 111.086565,76.6712707 C109.810935,79.3729417 108.046616,81.436457 105.793555,82.8618785 C103.540495,84.2872999 100.972707,85 98.0901147,85 Z M98.0901147,78.1878453 C100.210642,78.1878453 101.875563,77.2762522 103.084926,75.4530387 C104.29429,73.6298251 104.898962,70.8121738 104.898962,67 C104.898962,63.1878262 104.29429,60.3701749 103.084926,58.5469613 C101.875563,56.7237478 100.210642,55.8121547 98.0901147,55.8121547 C96.0027203,55.8121547 94.3543661,56.7237478 93.1450027,58.5469613 C91.9356393,60.3701749 91.3309667,63.1878262 91.3309667,67 C91.3309667,70.8121738 91.9356393,73.6298251 93.1450027,75.4530387 C94.3543661,77.2762522 96.0027203,78.1878453 98.0901147,78.1878453 Z" id="€10" fill="#EE8C00" fill-rule="nonzero"></path>
            </g>
        </g>
    </g>
</svg>