<?xml version="1.0" encoding="UTF-8"?>
<svg width="44px" height="44px" viewBox="0 0 44 44" version="1.1" xmlns="http://www.w3.org/2000/svg" xmlns:xlink="http://www.w3.org/1999/xlink">
    <!-- Generator: Sketch 59.1 (86144) - https://sketch.com -->
    <title>social-mail</title>
    <desc>Created with Sketch.</desc>
    <g id="Website" stroke="none" stroke-width="1" fill="none" fill-rule="evenodd">
        <g id="Keyn-web-w/-why-block" transform="translate(-1071.000000, -5587.000000)">
            <g id="footer" transform="translate(0.000000, 5159.000000)">
                <g id="meta-footer" transform="translate(0.000000, 361.000000)">
                    <g id="Group-5" transform="translate(1071.000000, 41.000000)">
                        <g id="arrow-down">
                            <g id="social-mail" transform="translate(22.000000, 48.000000) rotate(-90.000000) translate(-22.000000, -48.000000) translate(0.500000, 26.500000)">
                                <circle id="Oval" fill="#4722C3" cx="21.5" cy="21.5" r="21.5"></circle>
                                <g id="envelope-solid" transform="translate(22.000000, 21.500000) rotate(90.000000) translate(-22.000000, -21.500000) translate(12.000000, 14.000000)" fill="#FFFFFF" fill-rule="nonzero">
                                    <path d="M19.6210938,4.953125 C19.7734375,4.83203125 20,4.9453125 20,5.13671875 L20,13.125 C20,14.1601562 19.1601562,15 18.125,15 L1.875,15 C0.83984375,15 0,14.1601562 0,13.125 L0,5.140625 C0,4.9453125 0.22265625,4.8359375 0.37890625,4.95703125 C1.25390625,5.63671875 2.4140625,6.5 6.3984375,9.39453125 C7.22265625,9.99609375 8.61328125,11.2617188 10,11.2539063 C11.3945312,11.265625 12.8125,9.97265625 13.6054688,9.39453125 C17.5898438,6.5 18.7460938,5.6328125 19.6210938,4.953125 Z M10,10 C10.90625,10.015625 12.2109375,8.859375 12.8671875,8.3828125 C18.0507812,4.62109375 18.4453125,4.29296875 19.640625,3.35546875 C19.8671875,3.1796875 20,2.90625 20,2.6171875 L20,1.875 C20,0.83984375 19.1601562,0 18.125,0 L1.875,0 C0.83984375,0 0,0.83984375 0,1.875 L0,2.6171875 C0,2.90625 0.1328125,3.17578125 0.359375,3.35546875 C1.5546875,4.2890625 1.94921875,4.62109375 7.1328125,8.3828125 C7.7890625,8.859375 9.09375,10.015625 10,10 Z" id="Shape"></path>
                                </g>
                            </g>
                        </g>
                    </g>
                </g>
            </g>
        </g>
    </g>
</svg>