<?xml version="1.0" encoding="UTF-8"?>
<svg width="28px" height="28px" viewBox="0 0 28 28" version="1.1" xmlns="http://www.w3.org/2000/svg" xmlns:xlink="http://www.w3.org/1999/xlink">
    <!-- Generator: Sketch 50.2 (55047) - http://www.bohemiancoding.com/sketch -->
    <title>Combined Shape</title>
    <desc>Created with Sketch.</desc>
    <defs></defs>
    <g id="Website" stroke="none" stroke-width="1" fill="none" fill-rule="evenodd">
        <g id="Onepager-A" transform="translate(-1234.000000, -4147.000000)" fill="#FFFFFF" fill-rule="nonzero">
            <g id="Try" transform="translate(0.000000, 3293.000000)">
                <g id="Footer" transform="translate(0.000000, 797.000000)">
                    <g id="socials" transform="translate(1186.000000, 57.000000)">
                        <path d="M49.5453853,28 C48.6916426,28 48,27.3079287 48,26.4545184 L48,1.54537308 C48,0.691745833 48.6917511,0 49.5453853,0 L74.4547237,0 C75.3081404,0 76,0.691745833 76,1.54537308 L76,26.4545184 C76,27.3080372 75.3080319,28 74.4547237,28 L49.5453853,28 Z M71.9166667,24.5 L71.9166667,17.4321413 C71.9166667,13.4950362 69.7072139,11.6666667 66.894966,11.6666667 C64.6282178,11.6666667 63.2077701,12.9115393 62.9451663,13.7837892 L62.9451663,11.7888771 L58.5,11.7888771 C58.5572954,12.8480378 58.5,24.5 58.5,24.5 L62.9451663,24.5 L62.9451663,17.6214481 C62.9451663,17.23924 62.9272611,16.8570318 63.041852,16.5826562 C63.3474275,15.8182399 64.0039371,15.0250678 65.1844602,15.0250678 C66.7278543,15.0250678 67.4297228,16.200448 67.4297228,17.9221825 L67.4297228,24.5 L71.9166667,24.5 Z M53.8217363,10.5 C55.2667329,10.5 56.1666667,9.46803426 56.1666667,8.16476524 C56.1388334,6.83740852 55.2667329,5.83333333 53.8484094,5.83333333 C52.4289263,5.83333333 51.5,6.83994376 51.5,8.16856859 C51.5,9.4718376 52.4022532,10.5 53.7939031,10.5 L53.8217363,10.5 Z M52.0833333,11.6666667 L52.0833333,24.5 L56.1666667,24.5 L56.1666667,11.6666667 L52.0833333,11.6666667 Z" id="Combined-Shape"></path>
                    </g>
                </g>
            </g>
        </g>
    </g>
</svg>