<?xml version="1.0" encoding="UTF-8"?>
<svg width="28px" height="28px" viewBox="0 0 28 28" version="1.1" xmlns="http://www.w3.org/2000/svg" xmlns:xlink="http://www.w3.org/1999/xlink">
    <!-- Generator: Sketch 50.2 (55047) - http://www.bohemiancoding.com/sketch -->
    <title>Combined Shape</title>
    <desc>Created with Sketch.</desc>
    <defs></defs>
    <g id="Website" stroke="none" stroke-width="1" fill="none" fill-rule="evenodd">
        <g id="Onepager-A" transform="translate(-1186.000000, -4147.000000)" fill="#FFFFFF" fill-rule="nonzero">
            <g id="Try" transform="translate(0.000000, 3293.000000)">
                <g id="Footer" transform="translate(0.000000, 797.000000)">
                    <g id="socials" transform="translate(1186.000000, 57.000000)">
                        <path d="M1.54538533,28 C0.691642583,28 0,27.3079287 0,26.4545184 L0,1.54537308 C0,0.691745833 0.691751083,0 1.54538533,0 L26.4547237,0 C27.3081404,0 28,0.691745833 28,1.54537308 L28,26.4545184 C28,27.3080372 27.3080319,28 26.4547237,28 L1.54538533,28 Z M24.5,7.32168631 C23.7283852,7.67307713 22.8976051,7.91070787 22.0261488,8.01688344 C22.9160942,7.47083794 23.5989609,6.60500181 23.9206726,5.57358244 C23.0874276,6.07918019 22.1666668,6.44700263 21.183043,6.64418563 C20.3991021,5.78593356 19.278658,5.25 18.0386513,5.25 C15.6609438,5.25 13.731907,7.228151 13.731907,9.66765975 C13.731907,10.0139944 13.7688854,10.3502166 13.8428421,10.6737991 C10.2621059,10.4892559 7.08813175,8.732304 4.96187694,6.05642844 C4.59086119,6.71117737 4.37885175,7.47083794 4.37885175,8.27979425 C4.37885175,9.81175519 5.13937331,11.1642291 6.29556244,11.9567534 C5.59050887,11.9352656 4.92489856,11.7342903 4.34310625,11.4056517 L4.34310625,11.4600036 C4.34310625,13.60121 5.828403,15.3872337 7.80058125,15.7917117 C7.43942588,15.8953594 7.05854887,15.947183 6.66534619,15.947183 C6.38800837,15.947183 6.11683406,15.9206394 5.85428769,15.8688154 C6.40279981,17.6232394 7.99286862,18.9011375 9.878764,18.9352656 C8.4045605,20.1208919 6.54578269,20.8274649 4.52799769,20.8274649 C4.18040131,20.8274649 3.83650269,20.807241 3.5,20.7667933 C5.40684988,22.0181474 7.67238938,22.75 10.1043316,22.75 C18.0300229,22.75 22.3626519,16.0192309 22.3626519,10.1808416 C22.3626519,9.98871431 22.3589542,9.79658706 22.3515582,9.60825206 C23.1934321,8.98510287 23.9243703,8.20774631 24.5,7.32168631 Z" id="Combined-Shape"></path>
                    </g>
                </g>
            </g>
        </g>
    </g>
</svg>