<?xml version="1.0" encoding="UTF-8"?>
<svg width="135px" height="135px" viewBox="0 0 135 135" version="1.1" xmlns="http://www.w3.org/2000/svg" xmlns:xlink="http://www.w3.org/1999/xlink">
    <title>qr</title>
    <desc>Created with Sketch.</desc>
    <g id="Website" stroke="none" stroke-width="1" fill="none" fill-rule="evenodd">
        <g id="Keyn-Setup" transform="translate(-1194.000000, -688.000000)" fill-rule="nonzero">
            <g id="qr" transform="translate(1194.000000, 688.000000)">
                <rect id="Rectangle" fill="#FFFFFF" x="0" y="0" width="135" height="135"></rect>
                <path d="M0,0 L5.4,0 L5.4,5.4 L0,5.4 L0,0 Z M5.4,0 L10.8,0 L10.8,5.4 L5.4,5.4 L5.4,0 Z M10.8,0 L16.2,0 L16.2,5.4 L10.8,5.4 L10.8,0 Z M16.2,0 L21.6,0 L21.6,5.4 L16.2,5.4 L16.2,0 Z M21.6,0 L27,0 L27,5.4 L21.6,5.4 L21.6,0 Z M27,0 L32.4,0 L32.4,5.4 L27,5.4 L27,0 Z M32.4,0 L37.8,0 L37.8,5.4 L32.4,5.4 L32.4,0 Z M43.2,0 L48.6,0 L48.6,5.4 L43.2,5.4 L43.2,0 Z M48.6,0 L54,0 L54,5.4 L48.6,5.4 L48.6,0 Z M59.4,0 L64.8,0 L64.8,5.4 L59.4,5.4 L59.4,0 Z M64.8,0 L70.2,0 L70.2,5.4 L64.8,5.4 L64.8,0 Z M81,0 L86.4,0 L86.4,5.4 L81,5.4 L81,0 Z M97.2,0 L102.6,0 L102.6,5.4 L97.2,5.4 L97.2,0 Z M102.6,0 L108,0 L108,5.4 L102.6,5.4 L102.6,0 Z M108,0 L113.4,0 L113.4,5.4 L108,5.4 L108,0 Z M113.4,0 L118.8,0 L118.8,5.4 L113.4,5.4 L113.4,0 Z M118.8,0 L124.2,0 L124.2,5.4 L118.8,5.4 L118.8,0 Z M124.2,0 L129.6,0 L129.6,5.4 L124.2,5.4 L124.2,0 Z M129.6,0 L135,0 L135,5.4 L129.6,5.4 L129.6,0 Z M0,5.4 L5.4,5.4 L5.4,10.8 L0,10.8 L0,5.4 Z M32.4,5.4 L37.8,5.4 L37.8,10.8 L32.4,10.8 L32.4,5.4 Z M43.2,5.4 L48.6,5.4 L48.6,10.8 L43.2,10.8 L43.2,5.4 Z M54,5.4 L59.4,5.4 L59.4,10.8 L54,10.8 L54,5.4 Z M70.2,5.4 L75.6,5.4 L75.6,10.8 L70.2,10.8 L70.2,5.4 Z M75.6,5.4 L81,5.4 L81,10.8 L75.6,10.8 L75.6,5.4 Z M81,5.4 L86.4,5.4 L86.4,10.8 L81,10.8 L81,5.4 Z M86.4,5.4 L91.8,5.4 L91.8,10.8 L86.4,10.8 L86.4,5.4 Z M97.2,5.4 L102.6,5.4 L102.6,10.8 L97.2,10.8 L97.2,5.4 Z M129.6,5.4 L135,5.4 L135,10.8 L129.6,10.8 L129.6,5.4 Z M0,10.8 L5.4,10.8 L5.4,16.2 L0,16.2 L0,10.8 Z M10.8,10.8 L16.2,10.8 L16.2,16.2 L10.8,16.2 L10.8,10.8 Z M16.2,10.8 L21.6,10.8 L21.6,16.2 L16.2,16.2 L16.2,10.8 Z M21.6,10.8 L27,10.8 L27,16.2 L21.6,16.2 L21.6,10.8 Z M32.4,10.8 L37.8,10.8 L37.8,16.2 L32.4,16.2 L32.4,10.8 Z M43.2,10.8 L48.6,10.8 L48.6,16.2 L43.2,16.2 L43.2,10.8 Z M48.6,10.8 L54,10.8 L54,16.2 L48.6,16.2 L48.6,10.8 Z M64.8,10.8 L70.2,10.8 L70.2,16.2 L64.8,16.2 L64.8,10.8 Z M75.6,10.8 L81,10.8 L81,16.2 L75.6,16.2 L75.6,10.8 Z M81,10.8 L86.4,10.8 L86.4,16.2 L81,16.2 L81,10.8 Z M97.2,10.8 L102.6,10.8 L102.6,16.2 L97.2,16.2 L97.2,10.8 Z M108,10.8 L113.4,10.8 L113.4,16.2 L108,16.2 L108,10.8 Z M113.4,10.8 L118.8,10.8 L118.8,16.2 L113.4,16.2 L113.4,10.8 Z M118.8,10.8 L124.2,10.8 L124.2,16.2 L118.8,16.2 L118.8,10.8 Z M129.6,10.8 L135,10.8 L135,16.2 L129.6,16.2 L129.6,10.8 Z M0,16.2 L5.4,16.2 L5.4,21.6 L0,21.6 L0,16.2 Z M10.8,16.2 L16.2,16.2 L16.2,21.6 L10.8,21.6 L10.8,16.2 Z M16.2,16.2 L21.6,16.2 L21.6,21.6 L16.2,21.6 L16.2,16.2 Z M21.6,16.2 L27,16.2 L27,21.6 L21.6,21.6 L21.6,16.2 Z M32.4,16.2 L37.8,16.2 L37.8,21.6 L32.4,21.6 L32.4,16.2 Z M43.2,16.2 L48.6,16.2 L48.6,21.6 L43.2,21.6 L43.2,16.2 Z M48.6,16.2 L54,16.2 L54,21.6 L48.6,21.6 L48.6,16.2 Z M64.8,16.2 L70.2,16.2 L70.2,21.6 L64.8,21.6 L64.8,16.2 Z M75.6,16.2 L81,16.2 L81,21.6 L75.6,21.6 L75.6,16.2 Z M97.2,16.2 L102.6,16.2 L102.6,21.6 L97.2,21.6 L97.2,16.2 Z M108,16.2 L113.4,16.2 L113.4,21.6 L108,21.6 L108,16.2 Z M113.4,16.2 L118.8,16.2 L118.8,21.6 L113.4,21.6 L113.4,16.2 Z M118.8,16.2 L124.2,16.2 L124.2,21.6 L118.8,21.6 L118.8,16.2 Z M129.6,16.2 L135,16.2 L135,21.6 L129.6,21.6 L129.6,16.2 Z M0,21.6 L5.4,21.6 L5.4,27 L0,27 L0,21.6 Z M10.8,21.6 L16.2,21.6 L16.2,27 L10.8,27 L10.8,21.6 Z M16.2,21.6 L21.6,21.6 L21.6,27 L16.2,27 L16.2,21.6 Z M21.6,21.6 L27,21.6 L27,27 L21.6,27 L21.6,21.6 Z M32.4,21.6 L37.8,21.6 L37.8,27 L32.4,27 L32.4,21.6 Z M43.2,21.6 L48.6,21.6 L48.6,27 L43.2,27 L43.2,21.6 Z M48.6,21.6 L54,21.6 L54,27 L48.6,27 L48.6,21.6 Z M59.4,21.6 L64.8,21.6 L64.8,27 L59.4,27 L59.4,21.6 Z M81,21.6 L86.4,21.6 L86.4,27 L81,27 L81,21.6 Z M86.4,21.6 L91.8,21.6 L91.8,27 L86.4,27 L86.4,21.6 Z M97.2,21.6 L102.6,21.6 L102.6,27 L97.2,27 L97.2,21.6 Z M108,21.6 L113.4,21.6 L113.4,27 L108,27 L108,21.6 Z M113.4,21.6 L118.8,21.6 L118.8,27 L113.4,27 L113.4,21.6 Z M118.8,21.6 L124.2,21.6 L124.2,27 L118.8,27 L118.8,21.6 Z M129.6,21.6 L135,21.6 L135,27 L129.6,27 L129.6,21.6 Z M0,27 L5.4,27 L5.4,32.4 L0,32.4 L0,27 Z M32.4,27 L37.8,27 L37.8,32.4 L32.4,32.4 L32.4,27 Z M54,27 L59.4,27 L59.4,32.4 L54,32.4 L54,27 Z M59.4,27 L64.8,27 L64.8,32.4 L59.4,32.4 L59.4,27 Z M64.8,27 L70.2,27 L70.2,32.4 L64.8,32.4 L64.8,27 Z M81,27 L86.4,27 L86.4,32.4 L81,32.4 L81,27 Z M97.2,27 L102.6,27 L102.6,32.4 L97.2,32.4 L97.2,27 Z M129.6,27 L135,27 L135,32.4 L129.6,32.4 L129.6,27 Z M0,32.4 L5.4,32.4 L5.4,37.8 L0,37.8 L0,32.4 Z M5.4,32.4 L10.8,32.4 L10.8,37.8 L5.4,37.8 L5.4,32.4 Z M10.8,32.4 L16.2,32.4 L16.2,37.8 L10.8,37.8 L10.8,32.4 Z M16.2,32.4 L21.6,32.4 L21.6,37.8 L16.2,37.8 L16.2,32.4 Z M21.6,32.4 L27,32.4 L27,37.8 L21.6,37.8 L21.6,32.4 Z M27,32.4 L32.4,32.4 L32.4,37.8 L27,37.8 L27,32.4 Z M32.4,32.4 L37.8,32.4 L37.8,37.8 L32.4,37.8 L32.4,32.4 Z M43.2,32.4 L48.6,32.4 L48.6,37.8 L43.2,37.8 L43.2,32.4 Z M54,32.4 L59.4,32.4 L59.4,37.8 L54,37.8 L54,32.4 Z M64.8,32.4 L70.2,32.4 L70.2,37.8 L64.8,37.8 L64.8,32.4 Z M75.6,32.4 L81,32.4 L81,37.8 L75.6,37.8 L75.6,32.4 Z M86.4,32.4 L91.8,32.4 L91.8,37.8 L86.4,37.8 L86.4,32.4 Z M97.2,32.4 L102.6,32.4 L102.6,37.8 L97.2,37.8 L97.2,32.4 Z M102.6,32.4 L108,32.4 L108,37.8 L102.6,37.8 L102.6,32.4 Z M108,32.4 L113.4,32.4 L113.4,37.8 L108,37.8 L108,32.4 Z M113.4,32.4 L118.8,32.4 L118.8,37.8 L113.4,37.8 L113.4,32.4 Z M118.8,32.4 L124.2,32.4 L124.2,37.8 L118.8,37.8 L118.8,32.4 Z M124.2,32.4 L129.6,32.4 L129.6,37.8 L124.2,37.8 L124.2,32.4 Z M129.6,32.4 L135,32.4 L135,37.8 L129.6,37.8 L129.6,32.4 Z M43.2,37.8 L48.6,37.8 L48.6,43.2 L43.2,43.2 L43.2,37.8 Z M48.6,37.8 L54,37.8 L54,43.2 L48.6,43.2 L48.6,37.8 Z M59.4,37.8 L64.8,37.8 L64.8,43.2 L59.4,43.2 L59.4,37.8 Z M64.8,37.8 L70.2,37.8 L70.2,43.2 L64.8,43.2 L64.8,37.8 Z M70.2,37.8 L75.6,37.8 L75.6,43.2 L70.2,43.2 L70.2,37.8 Z M81,37.8 L86.4,37.8 L86.4,43.2 L81,43.2 L81,37.8 Z M5.4,43.2 L10.8,43.2 L10.8,48.6 L5.4,48.6 L5.4,43.2 Z M10.8,43.2 L16.2,43.2 L16.2,48.6 L10.8,48.6 L10.8,43.2 Z M21.6,43.2 L27,43.2 L27,48.6 L21.6,48.6 L21.6,43.2 Z M32.4,43.2 L37.8,43.2 L37.8,48.6 L32.4,48.6 L32.4,43.2 Z M37.8,43.2 L43.2,43.2 L43.2,48.6 L37.8,48.6 L37.8,43.2 Z M54,43.2 L59.4,43.2 L59.4,48.6 L54,48.6 L54,43.2 Z M64.8,43.2 L70.2,43.2 L70.2,48.6 L64.8,48.6 L64.8,43.2 Z M70.2,43.2 L75.6,43.2 L75.6,48.6 L70.2,48.6 L70.2,43.2 Z M97.2,43.2 L102.6,43.2 L102.6,48.6 L97.2,48.6 L97.2,43.2 Z M108,43.2 L113.4,43.2 L113.4,48.6 L108,48.6 L108,43.2 Z M113.4,43.2 L118.8,43.2 L118.8,48.6 L113.4,48.6 L113.4,43.2 Z M118.8,43.2 L124.2,43.2 L124.2,48.6 L118.8,48.6 L118.8,43.2 Z M124.2,43.2 L129.6,43.2 L129.6,48.6 L124.2,48.6 L124.2,43.2 Z M129.6,43.2 L135,43.2 L135,48.6 L129.6,48.6 L129.6,43.2 Z M5.4,48.6 L10.8,48.6 L10.8,54 L5.4,54 L5.4,48.6 Z M16.2,48.6 L21.6,48.6 L21.6,54 L16.2,54 L16.2,48.6 Z M21.6,48.6 L27,48.6 L27,54 L21.6,54 L21.6,48.6 Z M27,48.6 L32.4,48.6 L32.4,54 L27,54 L27,48.6 Z M37.8,48.6 L43.2,48.6 L43.2,54 L37.8,54 L37.8,48.6 Z M54,48.6 L59.4,48.6 L59.4,54 L54,54 L54,48.6 Z M59.4,48.6 L64.8,48.6 L64.8,54 L59.4,54 L59.4,48.6 Z M64.8,48.6 L70.2,48.6 L70.2,54 L64.8,54 L64.8,48.6 Z M75.6,48.6 L81,48.6 L81,54 L75.6,54 L75.6,48.6 Z M86.4,48.6 L91.8,48.6 L91.8,54 L86.4,54 L86.4,48.6 Z M91.8,48.6 L97.2,48.6 L97.2,54 L91.8,54 L91.8,48.6 Z M97.2,48.6 L102.6,48.6 L102.6,54 L97.2,54 L97.2,48.6 Z M129.6,48.6 L135,48.6 L135,54 L129.6,54 L129.6,48.6 Z M5.4,54 L10.8,54 L10.8,59.4 L5.4,59.4 L5.4,54 Z M21.6,54 L27,54 L27,59.4 L21.6,59.4 L21.6,54 Z M32.4,54 L37.8,54 L37.8,59.4 L32.4,59.4 L32.4,54 Z M54,54 L59.4,54 L59.4,59.4 L54,59.4 L54,54 Z M59.4,54 L64.8,54 L64.8,59.4 L59.4,59.4 L59.4,54 Z M75.6,54 L81,54 L81,59.4 L75.6,59.4 L75.6,54 Z M86.4,54 L91.8,54 L91.8,59.4 L86.4,59.4 L86.4,54 Z M91.8,54 L97.2,54 L97.2,59.4 L91.8,59.4 L91.8,54 Z M97.2,54 L102.6,54 L102.6,59.4 L97.2,59.4 L97.2,54 Z M102.6,54 L108,54 L108,59.4 L102.6,59.4 L102.6,54 Z M118.8,54 L124.2,54 L124.2,59.4 L118.8,59.4 L118.8,54 Z M124.2,54 L129.6,54 L129.6,59.4 L124.2,59.4 L124.2,54 Z M129.6,54 L135,54 L135,59.4 L129.6,59.4 L129.6,54 Z M5.4,59.4 L10.8,59.4 L10.8,64.8 L5.4,64.8 L5.4,59.4 Z M21.6,59.4 L27,59.4 L27,64.8 L21.6,64.8 L21.6,59.4 Z M43.2,59.4 L48.6,59.4 L48.6,64.8 L43.2,64.8 L43.2,59.4 Z M54,59.4 L59.4,59.4 L59.4,64.8 L54,64.8 L54,59.4 Z M59.4,59.4 L64.8,59.4 L64.8,64.8 L59.4,64.8 L59.4,59.4 Z M64.8,59.4 L70.2,59.4 L70.2,64.8 L64.8,64.8 L64.8,59.4 Z M70.2,59.4 L75.6,59.4 L75.6,64.8 L70.2,64.8 L70.2,59.4 Z M75.6,59.4 L81,59.4 L81,64.8 L75.6,64.8 L75.6,59.4 Z M81,59.4 L86.4,59.4 L86.4,64.8 L81,64.8 L81,59.4 Z M102.6,59.4 L108,59.4 L108,64.8 L102.6,64.8 L102.6,59.4 Z M108,59.4 L113.4,59.4 L113.4,64.8 L108,64.8 L108,59.4 Z M124.2,59.4 L129.6,59.4 L129.6,64.8 L124.2,64.8 L124.2,59.4 Z M16.2,64.8 L21.6,64.8 L21.6,70.2 L16.2,70.2 L16.2,64.8 Z M21.6,64.8 L27,64.8 L27,70.2 L21.6,70.2 L21.6,64.8 Z M32.4,64.8 L37.8,64.8 L37.8,70.2 L32.4,70.2 L32.4,64.8 Z M37.8,64.8 L43.2,64.8 L43.2,70.2 L37.8,70.2 L37.8,64.8 Z M43.2,64.8 L48.6,64.8 L48.6,70.2 L43.2,70.2 L43.2,64.8 Z M54,64.8 L59.4,64.8 L59.4,70.2 L54,70.2 L54,64.8 Z M75.6,64.8 L81,64.8 L81,70.2 L75.6,70.2 L75.6,64.8 Z M91.8,64.8 L97.2,64.8 L97.2,70.2 L91.8,70.2 L91.8,64.8 Z M97.2,64.8 L102.6,64.8 L102.6,70.2 L97.2,70.2 L97.2,64.8 Z M113.4,64.8 L118.8,64.8 L118.8,70.2 L113.4,70.2 L113.4,64.8 Z M124.2,64.8 L129.6,64.8 L129.6,70.2 L124.2,70.2 L124.2,64.8 Z M129.6,64.8 L135,64.8 L135,70.2 L129.6,70.2 L129.6,64.8 Z M5.4,70.2 L10.8,70.2 L10.8,75.6 L5.4,75.6 L5.4,70.2 Z M10.8,70.2 L16.2,70.2 L16.2,75.6 L10.8,75.6 L10.8,70.2 Z M27,70.2 L32.4,70.2 L32.4,75.6 L27,75.6 L27,70.2 Z M37.8,70.2 L43.2,70.2 L43.2,75.6 L37.8,75.6 L37.8,70.2 Z M43.2,70.2 L48.6,70.2 L48.6,75.6 L43.2,75.6 L43.2,70.2 Z M54,70.2 L59.4,70.2 L59.4,75.6 L54,75.6 L54,70.2 Z M70.2,70.2 L75.6,70.2 L75.6,75.6 L70.2,75.6 L70.2,70.2 Z M86.4,70.2 L91.8,70.2 L91.8,75.6 L86.4,75.6 L86.4,70.2 Z M97.2,70.2 L102.6,70.2 L102.6,75.6 L97.2,75.6 L97.2,70.2 Z M113.4,70.2 L118.8,70.2 L118.8,75.6 L113.4,75.6 L113.4,70.2 Z M129.6,70.2 L135,70.2 L135,75.6 L129.6,75.6 L129.6,70.2 Z M0,75.6 L5.4,75.6 L5.4,81 L0,81 L0,75.6 Z M10.8,75.6 L16.2,75.6 L16.2,81 L10.8,81 L10.8,75.6 Z M16.2,75.6 L21.6,75.6 L21.6,81 L16.2,81 L16.2,75.6 Z M21.6,75.6 L27,75.6 L27,81 L21.6,81 L21.6,75.6 Z M32.4,75.6 L37.8,75.6 L37.8,81 L32.4,81 L32.4,75.6 Z M48.6,75.6 L54,75.6 L54,81 L48.6,81 L48.6,75.6 Z M54,75.6 L59.4,75.6 L59.4,81 L54,81 L54,75.6 Z M59.4,75.6 L64.8,75.6 L64.8,81 L59.4,81 L59.4,75.6 Z M64.8,75.6 L70.2,75.6 L70.2,81 L64.8,81 L64.8,75.6 Z M75.6,75.6 L81,75.6 L81,81 L75.6,81 L75.6,75.6 Z M102.6,75.6 L108,75.6 L108,81 L102.6,81 L102.6,75.6 Z M118.8,75.6 L124.2,75.6 L124.2,81 L118.8,81 L118.8,75.6 Z M124.2,75.6 L129.6,75.6 L129.6,81 L124.2,81 L124.2,75.6 Z M129.6,75.6 L135,75.6 L135,81 L129.6,81 L129.6,75.6 Z M5.4,81 L10.8,81 L10.8,86.4 L5.4,86.4 L5.4,81 Z M43.2,81 L48.6,81 L48.6,86.4 L43.2,86.4 L43.2,81 Z M64.8,81 L70.2,81 L70.2,86.4 L64.8,86.4 L64.8,81 Z M81,81 L86.4,81 L86.4,86.4 L81,86.4 L81,81 Z M108,81 L113.4,81 L113.4,86.4 L108,86.4 L108,81 Z M124.2,81 L129.6,81 L129.6,86.4 L124.2,86.4 L124.2,81 Z M0,86.4 L5.4,86.4 L5.4,91.8 L0,91.8 L0,86.4 Z M16.2,86.4 L21.6,86.4 L21.6,91.8 L16.2,91.8 L16.2,86.4 Z M32.4,86.4 L37.8,86.4 L37.8,91.8 L32.4,91.8 L32.4,86.4 Z M37.8,86.4 L43.2,86.4 L43.2,91.8 L37.8,91.8 L37.8,86.4 Z M43.2,86.4 L48.6,86.4 L48.6,91.8 L43.2,91.8 L43.2,86.4 Z M59.4,86.4 L64.8,86.4 L64.8,91.8 L59.4,91.8 L59.4,86.4 Z M64.8,86.4 L70.2,86.4 L70.2,91.8 L64.8,91.8 L64.8,86.4 Z M70.2,86.4 L75.6,86.4 L75.6,91.8 L70.2,91.8 L70.2,86.4 Z M75.6,86.4 L81,86.4 L81,91.8 L75.6,91.8 L75.6,86.4 Z M86.4,86.4 L91.8,86.4 L91.8,91.8 L86.4,91.8 L86.4,86.4 Z M91.8,86.4 L97.2,86.4 L97.2,91.8 L91.8,91.8 L91.8,86.4 Z M97.2,86.4 L102.6,86.4 L102.6,91.8 L97.2,91.8 L97.2,86.4 Z M102.6,86.4 L108,86.4 L108,91.8 L102.6,91.8 L102.6,86.4 Z M108,86.4 L113.4,86.4 L113.4,91.8 L108,91.8 L108,86.4 Z M113.4,86.4 L118.8,86.4 L118.8,91.8 L113.4,91.8 L113.4,86.4 Z M43.2,91.8 L48.6,91.8 L48.6,97.2 L43.2,97.2 L43.2,91.8 Z M48.6,91.8 L54,91.8 L54,97.2 L48.6,97.2 L48.6,91.8 Z M64.8,91.8 L70.2,91.8 L70.2,97.2 L64.8,97.2 L64.8,91.8 Z M81,91.8 L86.4,91.8 L86.4,97.2 L81,97.2 L81,91.8 Z M86.4,91.8 L91.8,91.8 L91.8,97.2 L86.4,97.2 L86.4,91.8 Z M108,91.8 L113.4,91.8 L113.4,97.2 L108,97.2 L108,91.8 Z M113.4,91.8 L118.8,91.8 L118.8,97.2 L113.4,97.2 L113.4,91.8 Z M124.2,91.8 L129.6,91.8 L129.6,97.2 L124.2,97.2 L124.2,91.8 Z M129.6,91.8 L135,91.8 L135,97.2 L129.6,97.2 L129.6,91.8 Z M0,97.2 L5.4,97.2 L5.4,102.6 L0,102.6 L0,97.2 Z M5.4,97.2 L10.8,97.2 L10.8,102.6 L5.4,102.6 L5.4,97.2 Z M10.8,97.2 L16.2,97.2 L16.2,102.6 L10.8,102.6 L10.8,97.2 Z M16.2,97.2 L21.6,97.2 L21.6,102.6 L16.2,102.6 L16.2,97.2 Z M21.6,97.2 L27,97.2 L27,102.6 L21.6,102.6 L21.6,97.2 Z M27,97.2 L32.4,97.2 L32.4,102.6 L27,102.6 L27,97.2 Z M32.4,97.2 L37.8,97.2 L37.8,102.6 L32.4,102.6 L32.4,97.2 Z M43.2,97.2 L48.6,97.2 L48.6,102.6 L43.2,102.6 L43.2,97.2 Z M48.6,97.2 L54,97.2 L54,102.6 L48.6,102.6 L48.6,97.2 Z M54,97.2 L59.4,97.2 L59.4,102.6 L54,102.6 L54,97.2 Z M70.2,97.2 L75.6,97.2 L75.6,102.6 L70.2,102.6 L70.2,97.2 Z M81,97.2 L86.4,97.2 L86.4,102.6 L81,102.6 L81,97.2 Z M86.4,97.2 L91.8,97.2 L91.8,102.6 L86.4,102.6 L86.4,97.2 Z M97.2,97.2 L102.6,97.2 L102.6,102.6 L97.2,102.6 L97.2,97.2 Z M108,97.2 L113.4,97.2 L113.4,102.6 L108,102.6 L108,97.2 Z M113.4,97.2 L118.8,97.2 L118.8,102.6 L113.4,102.6 L113.4,97.2 Z M124.2,97.2 L129.6,97.2 L129.6,102.6 L124.2,102.6 L124.2,97.2 Z M129.6,97.2 L135,97.2 L135,102.6 L129.6,102.6 L129.6,97.2 Z M0,102.6 L5.4,102.6 L5.4,108 L0,108 L0,102.6 Z M32.4,102.6 L37.8,102.6 L37.8,108 L32.4,108 L32.4,102.6 Z M54,102.6 L59.4,102.6 L59.4,108 L54,108 L54,102.6 Z M59.4,102.6 L64.8,102.6 L64.8,108 L59.4,108 L59.4,102.6 Z M70.2,102.6 L75.6,102.6 L75.6,108 L70.2,108 L70.2,102.6 Z M86.4,102.6 L91.8,102.6 L91.8,108 L86.4,108 L86.4,102.6 Z M108,102.6 L113.4,102.6 L113.4,108 L108,108 L108,102.6 Z M113.4,102.6 L118.8,102.6 L118.8,108 L113.4,108 L113.4,102.6 Z M124.2,102.6 L129.6,102.6 L129.6,108 L124.2,108 L124.2,102.6 Z M0,108 L5.4,108 L5.4,113.4 L0,113.4 L0,108 Z M10.8,108 L16.2,108 L16.2,113.4 L10.8,113.4 L10.8,108 Z M16.2,108 L21.6,108 L21.6,113.4 L16.2,113.4 L16.2,108 Z M21.6,108 L27,108 L27,113.4 L21.6,113.4 L21.6,108 Z M32.4,108 L37.8,108 L37.8,113.4 L32.4,113.4 L32.4,108 Z M43.2,108 L48.6,108 L48.6,113.4 L43.2,113.4 L43.2,108 Z M75.6,108 L81,108 L81,113.4 L75.6,113.4 L75.6,108 Z M86.4,108 L91.8,108 L91.8,113.4 L86.4,113.4 L86.4,108 Z M91.8,108 L97.2,108 L97.2,113.4 L91.8,113.4 L91.8,108 Z M97.2,108 L102.6,108 L102.6,113.4 L97.2,113.4 L97.2,108 Z M102.6,108 L108,108 L108,113.4 L102.6,113.4 L102.6,108 Z M108,108 L113.4,108 L113.4,113.4 L108,113.4 L108,108 Z M113.4,108 L118.8,108 L118.8,113.4 L113.4,113.4 L113.4,108 Z M124.2,108 L129.6,108 L129.6,113.4 L124.2,113.4 L124.2,108 Z M129.6,108 L135,108 L135,113.4 L129.6,113.4 L129.6,108 Z M0,113.4 L5.4,113.4 L5.4,118.8 L0,118.8 L0,113.4 Z M10.8,113.4 L16.2,113.4 L16.2,118.8 L10.8,118.8 L10.8,113.4 Z M16.2,113.4 L21.6,113.4 L21.6,118.8 L16.2,118.8 L16.2,113.4 Z M21.6,113.4 L27,113.4 L27,118.8 L21.6,118.8 L21.6,113.4 Z M32.4,113.4 L37.8,113.4 L37.8,118.8 L32.4,118.8 L32.4,113.4 Z M54,113.4 L59.4,113.4 L59.4,118.8 L54,118.8 L54,113.4 Z M75.6,113.4 L81,113.4 L81,118.8 L75.6,118.8 L75.6,113.4 Z M81,113.4 L86.4,113.4 L86.4,118.8 L81,118.8 L81,113.4 Z M86.4,113.4 L91.8,113.4 L91.8,118.8 L86.4,118.8 L86.4,113.4 Z M102.6,113.4 L108,113.4 L108,118.8 L102.6,118.8 L102.6,113.4 Z M108,113.4 L113.4,113.4 L113.4,118.8 L108,118.8 L108,113.4 Z M113.4,113.4 L118.8,113.4 L118.8,118.8 L113.4,118.8 L113.4,113.4 Z M118.8,113.4 L124.2,113.4 L124.2,118.8 L118.8,118.8 L118.8,113.4 Z M0,118.8 L5.4,118.8 L5.4,124.2 L0,124.2 L0,118.8 Z M10.8,118.8 L16.2,118.8 L16.2,124.2 L10.8,124.2 L10.8,118.8 Z M16.2,118.8 L21.6,118.8 L21.6,124.2 L16.2,124.2 L16.2,118.8 Z M21.6,118.8 L27,118.8 L27,124.2 L21.6,124.2 L21.6,118.8 Z M32.4,118.8 L37.8,118.8 L37.8,124.2 L32.4,124.2 L32.4,118.8 Z M43.2,118.8 L48.6,118.8 L48.6,124.2 L43.2,124.2 L43.2,118.8 Z M54,118.8 L59.4,118.8 L59.4,124.2 L54,124.2 L54,118.8 Z M59.4,118.8 L64.8,118.8 L64.8,124.2 L59.4,124.2 L59.4,118.8 Z M81,118.8 L86.4,118.8 L86.4,124.2 L81,124.2 L81,118.8 Z M108,118.8 L113.4,118.8 L113.4,124.2 L108,124.2 L108,118.8 Z M129.6,118.8 L135,118.8 L135,124.2 L129.6,124.2 L129.6,118.8 Z M0,124.2 L5.4,124.2 L5.4,129.6 L0,129.6 L0,124.2 Z M32.4,124.2 L37.8,124.2 L37.8,129.6 L32.4,129.6 L32.4,124.2 Z M43.2,124.2 L48.6,124.2 L48.6,129.6 L43.2,129.6 L43.2,124.2 Z M48.6,124.2 L54,124.2 L54,129.6 L48.6,129.6 L48.6,124.2 Z M59.4,124.2 L64.8,124.2 L64.8,129.6 L59.4,129.6 L59.4,124.2 Z M64.8,124.2 L70.2,124.2 L70.2,129.6 L64.8,129.6 L64.8,124.2 Z M75.6,124.2 L81,124.2 L81,129.6 L75.6,129.6 L75.6,124.2 Z M81,124.2 L86.4,124.2 L86.4,129.6 L81,129.6 L81,124.2 Z M86.4,124.2 L91.8,124.2 L91.8,129.6 L86.4,129.6 L86.4,124.2 Z M97.2,124.2 L102.6,124.2 L102.6,129.6 L97.2,129.6 L97.2,124.2 Z M108,124.2 L113.4,124.2 L113.4,129.6 L108,129.6 L108,124.2 Z M113.4,124.2 L118.8,124.2 L118.8,129.6 L113.4,129.6 L113.4,124.2 Z M124.2,124.2 L129.6,124.2 L129.6,129.6 L124.2,129.6 L124.2,124.2 Z M0,129.6 L5.4,129.6 L5.4,135 L0,135 L0,129.6 Z M5.4,129.6 L10.8,129.6 L10.8,135 L5.4,135 L5.4,129.6 Z M10.8,129.6 L16.2,129.6 L16.2,135 L10.8,135 L10.8,129.6 Z M16.2,129.6 L21.6,129.6 L21.6,135 L16.2,135 L16.2,129.6 Z M21.6,129.6 L27,129.6 L27,135 L21.6,135 L21.6,129.6 Z M27,129.6 L32.4,129.6 L32.4,135 L27,135 L27,129.6 Z M32.4,129.6 L37.8,129.6 L37.8,135 L32.4,135 L32.4,129.6 Z M48.6,129.6 L54,129.6 L54,135 L48.6,135 L48.6,129.6 Z M86.4,129.6 L91.8,129.6 L91.8,135 L86.4,135 L86.4,129.6 Z M102.6,129.6 L108,129.6 L108,135 L102.6,135 L102.6,129.6 Z M124.2,129.6 L129.6,129.6 L129.6,135 L124.2,135 L124.2,129.6 Z M129.6,129.6 L135,129.6 L135,135 L129.6,135 L129.6,129.6 Z" id="Shape" fill="#4722C3"></path>
            </g>
        </g>
    </g>
</svg>