<?xml version="1.0" encoding="UTF-8"?>
<svg width="127px" height="152px" viewBox="0 0 127 152" version="1.1" xmlns="http://www.w3.org/2000/svg" xmlns:xlink="http://www.w3.org/1999/xlink">
    <!-- Generator: Sketch 54.1 (76490) - https://sketchapp.com -->
    <title>Phone finger</title>
    <desc>Created with Sketch.</desc>
    <g id="Latest" stroke="none" stroke-width="1" fill="none" fill-rule="evenodd">
        <g id="Keyn-web-w/-why-block" transform="translate(-828.000000, -2236.000000)">
            <g id="how" transform="translate(1.000000, 1715.000000)">
                <g id="Phone-finger" transform="translate(827.000000, 521.000000)">
                    <polygon id="Fill-1" fill="#EE8C00" points="0 87.75 0 100 13 100 13 86"></polygon>
                    <polygon id="Fill-2" fill="#EE8C00" points="0 106.75 0 119 13 119 13 105"></polygon>
                    <polygon id="Fill-3" fill="#EE8C00" points="84.8734932 128.816885 29 127.043995 29.0017501 135.963734 72.7558441 141.305589 106.009376 152 127 102.054102 85.2655142 68"></polygon>
                    <polygon id="Fill-4" fill="#4722C3" points="8 133 85 133 85 0 8 0"></polygon>
                    <polygon id="Fill-5" fill="#FFFFFF" points="16 113 78 113 78 17 16 17"></polygon>
                    <g id="Group-12" transform="translate(43.000000, 5.000000)">
                        <path d="M6,2.5 C6,3.88 4.88,5 3.5,5 C2.12,5 1,3.88 1,2.5 C1,1.12 2.12,-1.0031212e-13 3.5,-1.0031212e-13 C4.88,-1.0031212e-13 6,1.12 6,2.5" id="Fill-6" fill="#FFFFFF"></path>
                        <polyline id="Fill-10" fill="#EE8C00" points="47 101 4 102.75 4 115 45.2083333 122"></polyline>
                    </g>
                    <g id="fingerprint" transform="translate(27.000000, 42.000000)" fill="#EE8C00" fill-rule="nonzero">
                        <g id="baseline-fingerprint-24px">
                            <path d="M32.9248664,5.434 C32.7470522,5.434 32.5692381,5.39 32.4136507,5.302 C28.146111,3.124 24.4564673,2.2 20.0333402,2.2 C15.6324398,2.2 11.4538072,3.234 7.6530296,5.302 C7.11958714,5.588 6.45278405,5.39 6.14160928,4.862 C5.85266128,4.334 6.05270221,3.652 6.58614467,3.366 C10.7203238,1.144 15.2545847,0 20.0333402,0 C24.767642,0 28.9018211,1.034 33.4360821,3.344 C33.9917513,3.63 34.1917923,4.29 33.9028443,4.818 C33.7028033,5.214 33.3249483,5.434 32.9248664,5.434 L32.9248664,5.434 Z M1.1183594,16.984 C0.896091706,16.984 0.673824012,16.918 0.473783087,16.786 C-0.037432609,16.434 -0.148566456,15.752 0.207061854,15.246 C2.40751202,12.166 5.20808497,9.746 8.54210038,8.052 C15.521306,4.488 24.4564673,4.466 31.4578996,8.03 C34.791915,9.724 37.592488,12.122 39.7929381,15.18 C40.1485665,15.664 40.0374326,16.368 39.5262169,16.72 C39.0150012,17.072 38.3259714,16.962 37.9703431,16.456 C35.9699338,13.684 33.4360821,11.506 30.4354682,9.988 C24.0563854,6.754 15.899161,6.754 9.542305,10.01 C6.51946436,11.55 3.98561265,13.75 1.98520341,16.522 C1.80738925,16.83 1.47398771,16.984 1.1183594,16.984 L1.1183594,16.984 Z M15.0100903,43.538 C14.7211423,43.538 14.4321943,43.428 14.2321533,43.208 C12.2984244,41.294 11.2537662,40.062 9.76457269,37.4 C8.23092561,34.694 7.43076191,31.394 7.43076191,27.852 C7.43076191,21.318 13.0763613,15.994 20.0111134,15.994 C26.9458654,15.994 32.5914649,21.318 32.5914649,27.852 C32.5914649,28.468 32.1024759,28.952 31.4801264,28.952 C30.8577768,28.952 30.3687879,28.468 30.3687879,27.852 C30.3687879,22.528 25.7233931,18.194 20.0111134,18.194 C14.2988337,18.194 9.65343885,22.528 9.65343885,27.852 C9.65343885,31.02 10.3646955,33.946 11.7205284,36.322 C13.1430416,38.852 14.1210195,39.93 15.8324807,41.646 C16.2547894,42.086 16.2547894,42.768 15.8324807,43.208 C15.5879863,43.428 15.2990383,43.538 15.0100903,43.538 Z M30.9466839,39.468 C28.3016984,39.468 25.9678876,38.808 24.0563854,37.51 C20.7445968,35.288 18.7664143,31.68 18.7664143,27.852 C18.7664143,27.236 19.2554032,26.752 19.8777528,26.752 C20.5001023,26.752 20.9890912,27.236 20.9890912,27.852 C20.9890912,30.954 22.5894186,33.88 25.3010845,35.684 C26.8791851,36.74 28.724007,37.246 30.9466839,37.246 C31.4801264,37.246 32.3691972,37.18 33.2582679,37.026 C33.8583907,36.916 34.4362867,37.312 34.5474206,37.928 C34.6585544,38.522 34.2584726,39.094 33.636123,39.204 C32.3691972,39.446 31.2578587,39.468 30.9466839,39.468 L30.9466839,39.468 Z M26.4791033,44 C26.3901962,44 26.2790624,43.978 26.1901553,43.956 C22.6560989,42.988 20.3445149,41.69 17.9217971,39.336 C14.8100493,36.278 13.0985881,32.208 13.0985881,27.852 C13.0985881,24.288 16.1658823,21.384 19.9444331,21.384 C23.7229839,21.384 26.790278,24.288 26.790278,27.852 C26.790278,30.206 28.8573676,32.12 31.4134461,32.12 C33.9695246,32.12 36.0366141,30.206 36.0366141,27.852 C36.0366141,19.558 28.8129141,12.826 19.9222063,12.826 C13.6098038,12.826 7.83084376,16.302 5.23031174,21.692 C4.36346773,23.474 3.91893234,25.564 3.91893234,27.852 C3.91893234,29.568 4.07451973,32.274 5.40812589,35.794 C5.63039359,36.366 5.34144558,37.004 4.76354958,37.202 C4.18565358,37.422 3.54107726,37.114 3.34103634,36.564 C2.25192464,33.682 1.71848217,30.822 1.71848217,27.852 C1.71848217,25.212 2.22969787,22.814 3.22990249,20.724 C6.18606282,14.586 12.7429598,10.604 19.9222063,10.604 C30.0353864,10.604 38.2592911,18.326 38.2592911,27.83 C38.2592911,31.394 35.1919969,34.298 31.4134461,34.298 C27.6348953,34.298 24.5676011,31.394 24.5676011,27.83 C24.5676011,25.476 22.5005116,23.562 19.9444331,23.562 C17.3883546,23.562 15.321265,25.476 15.321265,27.83 C15.321265,31.592 16.7882318,35.112 19.4776709,37.752 C21.589214,39.82 23.61185,40.964 26.7458245,41.822 C27.3459473,41.976 27.6793488,42.592 27.5237614,43.164 C27.4126276,43.67 26.9458654,44 26.4791033,44 L26.4791033,44 Z" id="Shape"></path>
                        </g>
                    </g>
                </g>
            </g>
        </g>
    </g>
</svg>